<?xml version="1.0" encoding="UTF-8"?>
<svg id="Layer_2" data-name="Layer 2" xmlns="http://www.w3.org/2000/svg" viewBox="0 0 90.74 112">
  <g id="Layer_1-2" data-name="Layer 1">
    <g>
      <g>
        <path d="M14.14,104.96v2.93c0,.16.13.3.3.3h.58c.14,0,.24.12.24.25v.49c0,.14-.1.24-.24.24h-.58c-.17.01-.3.14-.3.31v1.13c0,.29,0,.3.29.3h.89c.14,0,.24.11.24.25v.46c0,.14-.05.25-.24.25h-1.7c-.23,0-.41-.08-.41-.41v-7.39c0-.23.18-.43.41-.43h1.68c.16,0,.29.13.29.29v.43c0,.16-.13.29-.29.29h-.86c-.16,0-.29.14-.29.3Z"/>
        <path d="M19.14,103.6c1.59,0,1.5,1.62,1.5,2.2,0,.09-.08.16-.17.16h-.49c-.1,0-.18-.08-.18-.18.01-.39-.02-1.28-.54-1.28,0,0-.7-.09-.7.96v4.6c0,1.05.59,1.05.59,1.05.66,0,.72-.99.72-1.42,0-.1.08-.18.18-.18h.45c.1,0,.18.08.18.17.02.58-.03,2.31-1.59,2.31,0,0-1.45.05-1.45-1.5v-4.98s-.06-1.91,1.51-1.91Z"/>
        <path d="M25.86,105.07v5.41c0,.84-.68,1.52-1.51,1.52s-1.52-.68-1.52-1.52v-5.41c0-.84.68-1.52,1.52-1.52s1.51.68,1.51,1.52ZM24.91,105.11c0-.32-.25-.58-.56-.58s-.58.25-.58.58v5.34c0,.31.25.56.58.56s.56-.25.56-.56v-5.34Z"/>
        <path d="M35.57,111.89h-.48c-.08,0-.14-.07-.14-.14v-.13c-.17.21-.41.34-.76.36,0,0-1.45.06-1.45-1.5v-4.98s-.07-1.86,1.51-1.91c1.58,0,1.43,1.62,1.43,2.21,0,.09-.09.16-.18.16h-.49c-.1,0-.18-.09-.17-.18,0-.39.05-1.28-.47-1.28,0,0-.7-.01-.7.96v4.6c0,1.05.59,1.05.59,1.05.64,0,.64-1,.64-1.43v-.33c0-.21-.17-.38-.38-.38h-.21c-.11,0-.22-.09-.22-.22v-.36c0-.13.09-.23.22-.23h.96c.25-.01.46.2.46.45v3.14c0,.07-.07.14-.14.14Z"/>
        <path d="M39.95,110.96c.22,0,.26-.03.26.26v.39c0,.21.01.26-.26.26h-1.78c-.22,0-.26-.07-.26-.26v-7.69c0-.2-.02-.26.26-.26h.43c.25,0,.26.05.26.26v6.75c0,.15.13.28.28.28h.82Z"/>
        <path d="M45.74,111.89h-.61c-.13,0-.15-.09-.17-.22l-.14-.94c-.03-.25-.24-.44-.48-.44h-.64c-.24,0-.46.18-.49.43l-.14.96c-.01.13-.01.22-.14.22h-.64c-.15,0-.15-.14-.13-.29l1.2-7.47c.07-.37.2-.45.45-.45h.43c.25,0,.39.12.45.45l1.2,7.47c.02.15.02.29-.13.29ZM43.8,109.11h.43c.2,0,.36-.17.32-.37l-.39-2.8c-.02-.15-.25-.15-.26,0l-.4,2.8c-.03.2.11.37.31.37Z"/>
        <path d="M49.34,111.78l-.74-2.85c-.07-.28-.07-.32-.07-.32-.03-.09-.12-.15-.13.01,0,0-.01.03-.02.32l-.16,2.73c-.01.15-.09.25-.28.25h-.43c-.22.01-.26-.14-.25-.29l.46-7.39c.03-.52.11-.55.39-.54.16.02.25-.03.37.39.11.43.48,2,.74,3.08l.31,1.3c.08.35.18.2.23,0,.25-1.05.78-3.41.96-4.03.2-.71.23-.74.46-.75.07,0,.36-.07.38.33l.46,7.61c.01.17-.03.28-.24.28h-.44c-.15.01-.26-.1-.28-.24l-.15-2.76c-.01-.23-.02-.25-.02-.25-.02-.11-.07-.11-.12-.02,0,0-.01.02-.07.24l-.73,2.9c-.01.08-.09.15-.17.15h-.3c-.09,0-.16-.07-.17-.15Z"/>
        <path d="M56.93,106.72c-.02,2.68-1.69,3.06-1.69,3.06-.43.15-.61.17-.61.52v1.33c-.01.24-.13.26-.28.26h-.39c-.14,0-.26-.02-.26-.26v-7.39c0-.32.22-.59.54-.59h1c1,0,1.7,1.37,1.69,3.06ZM55.98,106.73c0-.9-.13-1.47-.52-1.85-.11-.11-.2-.16-.4-.2-.23-.03-.44.14-.44.37v3.44c0,.2.09.31.37.26.46-.08.99-.66.99-2.03Z"/>
        <path d="M65.75,110.96c.22,0,.26-.03.26.26v.39c0,.21.01.26-.26.26h-1.78c-.22,0-.26-.07-.26-.26v-7.69c0-.2-.02-.26.26-.26h.43c.25,0,.26.05.26.26v6.75c0,.15.13.28.28.28h.82Z"/>
        <path d="M68.4,111.9c-.15,0-.26-.06-.26-.21v-7.85c0-.15.11-.18.26-.18h.43c.15,0,.26.07.26.22v7.81c0,.15-.11.21-.26.21h-.43Z"/>
        <path d="M71.58,111.89c-.23,0-.41.03-.41-.3v-7.5c0-.23.18-.43.41-.43h1.68c.15,0,.28.13.28.29v.43c0,.16-.13.29-.28.29h-.86c-.16,0-.3.13-.3.3v2.92c0,.16.06.3.3.3h.58c.14,0,.25.1.25.24v.49c0,.14-.11.25-.25.25h-.58c-.16,0-.29.14-.29.3v1.13s-.01,1.08-.01,1.08c0,.2-.16.21-.35.21h-.17Z"/>
        <path d="M76.21,104.96v2.93c0,.16.13.3.3.3h.58c.14,0,.24.12.24.25v.49c0,.14-.1.24-.24.24h-.58c-.17.01-.3.14-.3.31v1.13c0,.29,0,.3.29.3h.89c.14,0,.24.11.24.25v.46c0,.14-.05.25-.24.25h-1.7c-.23,0-.41-.08-.41-.41v-7.39c0-.23.18-.43.41-.43h1.68c.16,0,.29.13.29.29v.43c0,.16-.13.29-.29.29h-.86c-.16,0-.29.14-.29.3Z"/>
      </g>
      <path d="M90.45,43.67c-.02-.54.05-1.08.14-1.66.1-.7.21-1.42.11-2.13-.09-.71-.43-1.36-.76-1.98-.28-.54-.55-1.04-.66-1.57-.11-.53-.1-1.09-.08-1.68.02-.7.04-1.43-.17-2.11-.21-.68-.6-1.29-.98-1.88-.32-.49-.62-.95-.82-1.46-.19-.47-.33-.98-.47-1.47-.2-.69-.4-1.41-.73-2.07-.23-.46-.41-.97-.59-1.45-.25-.68-.51-1.38-.89-2.02-.63-1.04-1.36-2.06-2.07-3.04l-.05-.07c-.18-.25-.38-.49-.59-.72-.14.15-.28.3-.43.44.18.2.36.41.52.63l.05.07c.7.97,1.42,1.98,2.04,3,.35.59.6,1.26.84,1.91.19.5.38,1.02.62,1.51.3.62.49,1.28.69,1.97.14.51.29,1.03.49,1.53.22.56.55,1.07.87,1.57.37.58.73,1.12.91,1.72.18.59.16,1.24.14,1.92-.02.6-.03,1.23.1,1.82.13.61.43,1.18.71,1.73.32.61.62,1.18.69,1.78.08.63-.01,1.27-.11,1.96-.08.58-.17,1.18-.14,1.78.02.35.04.69.06,1.04.05.87.11,1.76.07,2.64-.01.4-.02.8-.03,1.2-.01.82-.02,1.67-.12,2.49-.1.79-.28,1.6-.47,2.37-.1.41-.2.83-.28,1.24-.1.47-.17.95-.24,1.42-.11.74-.23,1.5-.44,2.22-.07.22-.13.45-.19.67-.27.95-.56,1.93-.92,2.86-.35.89-.79,1.78-1.21,2.64-.12.24-.24.48-.35.72-.35.72-.79,1.42-1.22,2.1-.23.36-.45.72-.67,1.08-.64,1.08-1.36,2.12-2.04,3.07-.41.58-.92,1.1-1.42,1.6-.35.36-.72.73-1.05,1.13-.4.47-.68,1.04-.95,1.59-.3.61-.59,1.19-1.01,1.62-.45.45-1.02.76-1.63,1.1-.52.28-1.05.58-1.5.96-.37.32-.72.65-1.06.97-.56.53-1.09,1.03-1.69,1.47-.71.51-1.49.96-2.24,1.4-.3.17-.6.35-.9.53-1.27.76-2.27,1.31-3.22,1.78-.64.32-1.35.54-2.03.75-.47.15-.96.3-1.43.49-.48.19-.95.41-1.4.63-.67.32-1.3.62-1.98.83-.9.27-1.83.46-2.74.65-.28.06-.56.12-.85.18-.57.12-1.12.34-1.65.54-.65.25-1.26.49-1.9.57-.83.11-1.7.13-2.54.15-.39,0-.78.02-1.16.04-1.06.05-2.16,0-3.21-.04l-.49-.02c-1.09-.04-2.26-.14-3.68-.31-1.18-.14-2.44-.3-3.66-.55-.96-.2-1.92-.49-2.86-.77-.24-.07-.47-.14-.71-.21-.49-.15-1-.25-1.5-.36-.7-.15-1.43-.31-2.1-.56-.28-.11-.56-.21-.84-.32-.87-.33-1.77-.67-2.61-1.07-.99-.48-1.98-1.07-2.94-1.64l-.3-.18c-.57-.33-1.06-.79-1.58-1.27-.41-.38-.84-.76-1.3-1.09-.21-.15-.41-.29-.62-.43-.83-.58-1.61-1.13-2.35-1.75-.66-.55-1.26-1.18-1.85-1.78-.26-.27-.52-.54-.79-.8-.39-.39-.82-.73-1.23-1.07-.56-.46-1.09-.89-1.53-1.4-.41-.48-.68-1.08-.97-1.71-.24-.53-.49-1.08-.84-1.56-.58-.81-1.34-1.88-2.03-3.04-.51-.86-1.18-1.99-1.77-3.2-.42-.86-.75-1.72-1.1-2.63-.1-.25-.19-.51-.29-.76-.16-.4-.33-.79-.49-1.18-.32-.75-.63-1.46-.86-2.22-.17-.56-.44-1.1-.69-1.61-.31-.62-.6-1.21-.74-1.83l-.03-.12c-.25-1.16-.5-2.36-.65-3.53-.11-.83-.13-1.7-.15-2.55,0-.39-.02-.78-.04-1.17-.03-.66.08-1.32.2-2.02.09-.54.18-1.11.2-1.67.03-.85.15-1.68.27-2.55.05-.36.1-.73.15-1.1l.03-.27c.14-1.15.27-2.24.5-3.35.07-.36.14-.73.21-1.09.15-.83.31-1.68.55-2.5.22-.75.52-1.46.84-2.21.17-.39.34-.8.5-1.21.19-.48.34-.98.48-1.46.2-.68.41-1.38.73-2.02.23-.47.42-.96.61-1.44.26-.66.52-1.35.88-1.96.35-.59.8-1.11,1.27-1.67.34-.4.7-.82,1.01-1.26.69-.97,1.43-1.93,2.26-2.91.36-.43.67-.89.97-1.34.4-.6.78-1.16,1.25-1.64.44-.44,1.02-.73,1.63-1.03.54-.27,1.1-.55,1.57-.94.46-.39.83-.88,1.2-1.34.42-.54.81-1.05,1.32-1.41.31-.22.62-.46.93-.69.68-.51,1.38-1.03,2.1-1.47.73-.44,1.53-.82,2.31-1.18.34-.16.68-.32,1.01-.48.42-.21.84-.44,1.25-.66.67-.37,1.36-.75,2.07-1.02.67-.26,1.4-.43,2.1-.59.49-.11,1-.23,1.49-.37.45-.14.9-.29,1.34-.45.72-.25,1.46-.51,2.2-.67.7-.15,1.44-.19,2.16-.23.51-.03,1.03-.06,1.54-.12.53-.07,1.06-.19,1.58-.3.69-.15,1.4-.31,2.09-.34h.2c.87-.05,1.76-.09,2.64-.09.3,0,.59,0,.88.02.61.02,1.21.26,1.84.51.57.23,1.16.46,1.78.54.56.07,1.13.06,1.68.05.7-.01,1.37-.02,2.02.11.46.09.93.17,1.38.24.76.12,1.54.24,2.27.46.65.19,1.27.5,1.92.83.48.24.97.49,1.48.69.45.18.92.33,1.38.47.71.23,1.44.47,2.1.79.21.1.42.2.63.3.89.43,1.82.87,2.68,1.38,0,0,0,0,0,0,.13-.16.26-.32.39-.47-.03-.02-.06-.04-.09-.06-.88-.52-1.82-.97-2.73-1.41-.21-.1-.42-.2-.62-.3-.71-.34-1.46-.59-2.18-.82-.45-.14-.91-.29-1.34-.46-.48-.19-.96-.43-1.42-.66-.65-.33-1.31-.66-2.02-.87-.77-.23-1.57-.35-2.34-.48-.45-.07-.91-.14-1.35-.24-.72-.15-1.45-.14-2.15-.13-.56,0-1.08.02-1.6-.05-.54-.06-1.07-.27-1.63-.5-.66-.26-1.34-.53-2.05-.56-1.19-.04-2.4.01-3.57.07h-.2c-.75.04-1.48.21-2.2.37-.5.11-1.02.23-1.52.29-.49.06-1,.09-1.5.12-.74.04-1.51.08-2.25.24-.78.17-1.54.43-2.28.69-.43.15-.88.31-1.31.44-.47.14-.97.25-1.45.36-.73.16-1.48.33-2.19.61-.74.29-1.45.68-2.14,1.06-.4.22-.82.45-1.23.65-.33.16-.67.32-1,.48-.79.37-1.6.75-2.36,1.21-.75.45-1.46.98-2.15,1.5-.31.23-.61.46-.92.68-.58.42-1.02.99-1.45,1.54-.36.46-.7.9-1.11,1.25-.41.35-.91.59-1.44.86-.63.31-1.29.64-1.8,1.15-.51.52-.92,1.13-1.32,1.73-.29.44-.6.89-.93,1.29-.84,1-1.59,1.97-2.29,2.95-.3.42-.64.83-.98,1.22-.47.55-.96,1.12-1.33,1.75-.39.65-.66,1.36-.93,2.05-.18.47-.37.95-.58,1.4-.33.69-.55,1.41-.76,2.11-.14.47-.29.96-.47,1.42-.16.4-.33.8-.49,1.19-.31.73-.63,1.49-.87,2.28-.25.85-.41,1.72-.57,2.56-.07.36-.13.72-.21,1.08-.23,1.14-.37,2.29-.51,3.4l-.03.27c-.04.36-.09.73-.14,1.09-.12.85-.24,1.73-.27,2.61-.02.53-.11,1.07-.2,1.59-.12.7-.24,1.42-.2,2.15.02.38.03.77.04,1.15.02.86.04,1.74.15,2.61.15,1.2.41,2.41.66,3.58l.03.12c.15.7.47,1.35.79,1.98.26.52.5,1,.65,1.51.24.79.57,1.55.88,2.29.17.39.33.77.49,1.17.1.25.2.5.29.75.34.88.69,1.79,1.12,2.68.61,1.23,1.28,2.38,1.8,3.25.71,1.18,1.47,2.27,2.06,3.09.31.43.54.93.78,1.46.29.64.59,1.3,1.06,1.85.48.56,1.06,1.03,1.61,1.48.4.33.82.67,1.19,1.03.26.26.52.52.78.79.6.62,1.22,1.25,1.9,1.82.76.64,1.59,1.22,2.4,1.79.2.14.41.29.61.43.43.31.84.68,1.24,1.05.52.48,1.06.97,1.68,1.34l.3.18c.97.58,1.97,1.17,2.99,1.66.86.42,1.78.76,2.66,1.1.28.11.56.21.84.32.71.28,1.46.44,2.19.59.48.1.98.21,1.45.35.23.07.47.14.7.21.95.28,1.93.58,2.91.78,1.24.26,2.51.42,3.71.56,1.44.17,2.62.27,3.73.31l.48.02c.73.03,1.47.06,2.22.06.35,0,.7,0,1.05-.02.38-.02.77-.03,1.15-.04.86-.02,1.74-.04,2.61-.15.71-.09,1.39-.36,2.05-.61.53-.21,1.04-.4,1.56-.51.28-.06.56-.12.84-.17.92-.19,1.87-.38,2.79-.66.73-.22,1.41-.55,2.07-.86.44-.21.9-.43,1.36-.61.45-.18.93-.33,1.39-.47.7-.22,1.43-.45,2.12-.79.97-.48,1.97-1.03,3.26-1.81.3-.18.6-.35.9-.52.76-.44,1.55-.9,2.29-1.43.63-.46,1.21-1,1.76-1.52.34-.32.68-.65,1.04-.95.4-.35.89-.61,1.4-.89.62-.34,1.26-.69,1.77-1.2.5-.5.82-1.15,1.13-1.78.27-.54.52-1.05.87-1.47.32-.38.68-.74,1.02-1.09.51-.52,1.04-1.06,1.48-1.68.69-.97,1.41-2.02,2.06-3.12.21-.36.44-.71.66-1.06.44-.69.89-1.41,1.25-2.16.12-.24.23-.48.35-.71.43-.87.88-1.78,1.23-2.69.37-.96.66-1.95.94-2.92.06-.22.13-.45.19-.67.22-.76.34-1.54.46-2.3.07-.46.14-.93.24-1.38.08-.41.18-.82.28-1.23.19-.79.38-1.61.48-2.44.1-.85.11-1.72.12-2.55,0-.4.01-.79.02-1.19.03-.91-.02-1.82-.07-2.7-.02-.34-.04-.68-.06-1.03Z"/>
      <path d="M30.76,107.22l-2.95-.15,2.4,1.72s.03-.6-.15-1.26c-.19-.71-.68-1.39-.68-1.39l-.93,2.7,2.32-1.61Z"/>
      <path d="M58.9,107.22l2.46,1.63-1.2-2.7s-.32.5-.51,1.16c-.2.71-.12,1.55-.12,1.55l2.17-1.85-2.81.21Z"/>
      <g>
        <path d="M70.72,59.93c-.05-.84-.3-.72-1.12-.72h-.49s.05.04.07.06c-.45.05-.84.09-1.29.14-.03-.06-.06-.12-.09-.21h-.46c0,.11-.01.21-.02.32-.35.04-.69-.37-.92.1-.13-.14-.26-.27-.4-.42-.58-.07-1.05-.57-1.05-1.16v-5.49c-.22.05-.4.17-.56-.13.31-.17.45-.24.56-.19v-4.69c-.37-.21-.76-.34-1.26-.09-.02-.26.35-.48-.11-.69.59.03,1.08.04,1.37.56v-6.49c-.06-.02-.13-.07-.2-.15.06,0,.13,0,.2-.01v-5.32c-.36.18-.34.42-.12.68-.22.17-.37.16-.52-.03.09-.25.16-.51.27-.74.03-.06.19-.05.29-.07.02.03.05.07.07.1v-1.33s-.07-.01-.11-.02c.03-.15.05-.27.09-.48,0,0,.01,0,.02.01v-2.75c-.14-.19-.3-.4-.46-.62.14-.11.3-.24.46-.38v-.39c0-.93-.05-1.13-1.12-1.13h-1.81c-1.22,0-1.12.29-1.12,1.13v5.32c.15,0,.29.04.43.12.08.04.11.18.2.34-.24-.06-.44-.12-.63-.17v3.74c.08-.09.16-.18.24-.27.05.29-.01.49-.24.56v11.05s.05.05.08.08c-.03,0-.05.01-.08.02v5.21c.16-.12.27-.2.38-.29.09.1.17.2.26.29-.02.05-.03.11-.05.16-.17-.01-.34-.02-.6-.04v2.23s.09-.06.14-.08c-.05.22-.1.41-.14.6v1.55s.03,0,.04.01c.33-.23.13-.52,0-.83.48.3.48.31.29,1.13h-.34v1.94c0,.83.2,1.12,1.12,1.12h7.58c1.17,0,1.13-.24,1.13-1.12v-1.66c0-.07,0-.14,0-.21-.01,0-.02,0-.03.01,0-.09,0-.15.02-.2ZM63.54,43.45c.3.16.52.28.85.46-.65.07-.66.07-.85-.46ZM63.45,37.22c.02-.14.05-.27.07-.41.05,0,.11.01.16.02-.03.14-.06.28-.09.42-.05,0-.09-.02-.14-.03ZM64.29,39.98c.04.19.08.35.12.53-.46-.11-.46-.12-.12-.53ZM64.44,38.7s0,0,0,0q-.01-.3.41-.44c-.14.15-.27.3-.41.44,0,0,0,0,0,0h0s0,0,0,0c-.15-.05-.39.12-.48-.27.2.11.34.19.49.27ZM63.58,28.6c.31-.04.37.12.31.34-.06.24-.23.26-.5.13.07-.19.13-.33.18-.47ZM63.48,39.89c-.3.05-.52.09-.74.12.11-.42.26-.45.74-.12ZM63.11,48.99c-.09.11-.17.22-.31.4-.09-.33,0-.45.31-.4ZM62.66,42.83c.59-.11.63-.09.67.32-.21-.1-.4-.19-.67-.32ZM62.87,46.47c.46-.02.48.02.5.75-.18-.27-.34-.5-.5-.75ZM62.95,28.7c0,.31-.03.48-.44.44.17-.17.28-.28.44-.44ZM62.77,31.29s.03.07.04.1c-.09.04-.18.08-.27.12-.01-.04-.03-.07-.04-.11.09-.04.18-.08.27-.11ZM62.09,30.56c-.17-.52-.29-.91-.43-1.36.51.31.58.53.43,1.36ZM61.11,36.37c.01-.05.02-.1.03-.16.17.04.34.08.61.15-.31.21-.48.08-.65,0ZM61.15,42c.17.1.34.19.5.28.16-.09.3-.19.46-.25.21-.08.26,0,.23.25-.25.07-.47.14-.69.19-.4.1-.54-.02-.51-.47ZM61.97,49.85c-.33-.2-.32-.24.21-.73-.09.33-.15.53-.21.73ZM62,53.11l-.54.17s-.02-.08-.03-.11c.18-.05.36-.1.54-.15,0,.03.02.07.03.1ZM62.21,46.92c-.05-.25-.58-.15-.45-.6.32.09.47.28.45.6ZM60.97,44.26c.15-.09.29-.17.44-.27-.07.34.61.46.17.94-.18-.19-.35-.39-.61-.67ZM61.18,52.26c.09-.15.16-.28.28-.47.14.23.23.38.37.62-.27-.06-.43-.1-.65-.15ZM61.5,55.05c.08-.22.14-.4.23-.63-.1-.07-.24-.18-.44-.33.59.14.75.31.8.71-.19.08-.36.15-.59.26ZM62.18,62.06c-.08-.08-.17-.16-.25-.24.03-.03.07-.06.1-.09l.22.27s-.04.04-.06.06ZM61.82,47.35q.51-.08.54.51-.41-.04-.54-.51ZM62.22,33.21c-.21-.3-.38-.54-.58-.82-.14.11-.28.22-.55.42.09-.28.12-.46.21-.6.04-.07.23-.14.29-.1.25.16.49.34.7.55.13.14.15.34-.08.55ZM62.39,59.18c.1-.09.21-.19.31-.29.03.04.07.08.1.11-.11.08-.22.17-.33.25-.02-.03-.05-.05-.07-.08ZM62.64,60.86q.06-.47.57-.53c-.2.18-.36.33-.57.53ZM62.94,58.75s0-.07,0-.11c.11-.01.22-.02.34-.04,0,.05,0,.1.01.15h-.34ZM62.68,54.46c.11-.42.14-.43.72-.12-.32.05-.52.09-.72.12ZM63.48,53.16c-.15-.11-.22-.17-.32-.25.12-.1.22-.18.39-.32-.03.21-.04.34-.07.57ZM64.21,62.45c-.05.01-.11.02-.17.03-.1-.12-.21-.24-.33-.39.18-.15.35-.3.51-.13.08.08,0,.32-.01.49ZM64.3,50.75c.01-.06.08-.1.13-.16.04.03.08.07.14.12-.05.06-.1.11-.14.17-.04-.05-.13-.1-.12-.13ZM65.99,61.19c.02.27.03.42.05.69-.32-.25-.3-.4-.05-.69ZM66.77,62.66v-.73c.2.14.31.23.47.35-.16.13-.28.23-.47.39ZM69.76,60.54s-.09-.02-.14-.02c-.04-.25-.1-.51.3-.64-.05.22-.11.44-.16.66Z"/>
        <path d="M64.96,30.2v-.05s0,.03,0,.05Z"/>
      </g>
      <g>
        <path d="M45.35,27.86c-.73.02-1.38.14-1.96.33.02.09.03.19.05.28-.05,0-.1.02-.15.02-.01-.09-.03-.17-.04-.26-.58.2-1.08.48-1.52.81.09-.03.19-.03.32,0,.18.06.36.12.55.19-.05.37-.33.58-.65.94-.17-.28-.32-.46-.39-.67-.04-.15-.03-.26.02-.35-2.82,2.29-2.65,6.82-2.65,6.82v21.18c0,.13,0,.26.01.39.1.12.15.26.03.48.08.9.29,1.66.58,2.29.16-.05.29-.09.41-.12.03.18.05.32.08.47-.1.08-.22.05-.37-.09,1.64,3.09,5.41,2.94,5.41,2.94.75-.02,1.39-.19,1.93-.47-.44-.25-.42-.28-.25-.56.12.18.23.34.34.51.47-.26.88-.59,1.21-1v.54c0,.29.24.59.59.59h2.05c.29,0,.59-.29.59-.59v-14.51c-.16-.05-.26-.16-.29-.33-.05-.25.02-.47.29-.54v-6.09c0-1.08-.88-1.96-1.96-1.96l-4.06.05c-.54,0-.93.44-.93.98v1.95c.06-.07.15-.16.27-.28-.02.33-.04.58-.06.86-.09-.08-.15-.14-.2-.19v.04c0,.54.44.93.93.93h.88c.16,0,.3.03.45.07,0,0,0-.02.01-.03,0,0,0-.01,0-.02,0,0,0,0,0,0,0,0,0,0,0,.01,0,.01,0,.02.01.04.11.03.21.08.31.13-.08-.09-.17-.16-.31-.18,0,0,0,0,0,0,0,0,0,0,0,0,0,0,0,0,.01,0,.09-.03.18-.06.3-.1.23.31.46.63.76,1.05-.02,0-.04-.01-.06-.02.09.2.14.42.14.65v.44s.1-.07.15-.11c.2.24.38.47.72.39-.25.15-.49.3-.74.45-.04-.05-.08-.09-.13-.14v.88h.06s-.04.05-.06.07v3.7s.09-.05.14-.08c.07.09.13.18.21.29-.12.13-.23.25-.35.38v1.21c.15-.12.25-.2.41-.33.01.24.02.39.03.61-.16-.04-.32-.11-.44-.14v1.04s0,.08,0,.11c.27-.16.3-.1.45.21-.15-.01-.29-.02-.45-.04,0,1.9-.14,5.38-2.74,5.38,0,0-2.08.33-2.44-3.02-.07-.06-.14-.12-.22-.18.07,0,.14,0,.2,0-.02-.26-.03-.54-.03-.85v-5.39c-.02.05-.04.11-.06.17-.1-.37-.18-.65-.24-.9-.15-.2-.35.39-.46-.11.05-.05.11-.12.19-.16.25-.12.36-.29.25-.56-.07-.17-.05-.3.19-.4.01.18.11.35.12.52v-10.85c-.22,0-.35-.13-.41-.41.15.05.28.09.41.14v-1.6c0-.1,0-.19,0-.29-.02-.05-.04-.08-.04-.12-.05-.23-.15-.39-.42-.39-.23,0-.23-.14-.18-.31.37.07.57.16.67.36.34-3.32,2.94-3.03,2.94-3.03.06,0,.11,0,.16,0v-.35c.1.02.19.04.31.06.06-.2.12-.39.22-.7.12.28.19.46.3.72-.24.1-.45.19-.67.28.42.03.74.1.98.23-.08-.15-.01-.27.06-.4.04,0,.08.02.12.02-.03.14-.06.28-.08.42.71.44.62,1.36.62,2.53-.03.22.07.44.24.59,0,0,0,0,0,0,0,0,0,0,0,0,.13.11.3.19.49.19h2.1s.04,0,.05,0c.06-.02.13-.03.19-.05,0,0-.01.01-.02.02.17-.05.33-.15.43-.29-.08-.12-.16-.23-.25-.36.13-.07.26-.13.38-.2.03-2.53.47-6.88-6.07-6.88ZM44.91,41.07c-.07-.09-.15-.17-.22-.26.04-.03.08-.07.12-.1.06.1.13.19.19.29-.03.02-.06.05-.09.07ZM45.58,40.78c0-.11-.01-.22-.02-.33.03,0,.06-.01.1-.02.03.11.05.21.08.32-.05,0-.1.02-.16.02ZM46.77,39.38q.36-.06.4.26c-.11-.07-.22-.14-.4-.26ZM46.89,40.94c.23.15.36.24.54.36.11-.11.21-.19.3-.28.26.19.15.35-.03.47-.23.15-.41.04-.81-.55ZM47.7,43.06c-.1-.21-.17-.36-.25-.54.22-.04.39-.07.67-.12-.16.26-.27.43-.42.66ZM48.71,61.38c-.18-.61-.07-.76.52-.62-.2.23-.34.41-.52.62ZM50.16,54.24q.02-.5.45-.4c-.18.16-.31.28-.45.4ZM50.94,49.37c-.1-.24-.07-.49-.37-.43-.31.06-.08.32-.19.47-.44-.24-.28-.59-.23-1.03.32.32.65.46,1.05.5-.09.16-.16.29-.27.49ZM51.09,42.81c.06.11.18.26.15.31-.09.14-.22.26-.37.33-.05.02-.19-.13-.28-.21.19-.17.32-.28.5-.43ZM49.84,44.62c.11-.11.22-.22.41-.42-.01.33-.11.46-.41.42ZM49.81,41.26c.09.13.21.23.2.29-.03.1-.14.18-.22.26-.09-.08-.24-.16-.24-.24,0-.09.14-.18.26-.31ZM49.28,49.47s-.25-.01-.28-.07c-.1-.22.05-.34.24-.42.2.17.23.34.04.49ZM49.15,41.79c0,.28,0,.44,0,.59-.05,0-.14.01-.16-.02-.14-.19-.05-.35.15-.58ZM48.4,50.19s-.02-.09-.03-.14c.15-.04.31-.07.46-.11,0,.07,0,.14.01.2-.15.02-.3.03-.45.05ZM49.27,57.88c-.29-.18-.53-.33-.8-.5.52-.2.72-.08.8.5ZM48.75,60.31c0,.06.01.12.02.17h-.36s0-.09,0-.13c.12-.01.24-.03.35-.04ZM48.15,60.55s.06,0,.1,0c0,.17.02.34.03.51-.04,0-.08,0-.12,0v-.52ZM46.5,60.73s.08.03.13.05c-.06.16-.12.31-.18.47-.04-.02-.09-.03-.13-.05.06-.16.12-.31.18-.47ZM46.49,61.44c-.1.36-.16.58-.22.8-.04,0-.08,0-.11,0-.06-.15-.12-.29-.19-.47.15-.09.27-.17.53-.34ZM45.06,61.06c.13.02.27-.06.5-.12-.12.26-.22.47-.32.71-.23-.17-.4-.3-.57-.43.09-.19.21-.2.39-.17ZM41.12,29.7s.09.03.14.04c-.03.12-.06.23-.09.35-.05-.02-.12-.02-.15-.05-.16-.21.09-.22.11-.34ZM41.09,36.97c.21.36.42.71.64,1.08-.3.34-.59-.16-.9.02-.12-.46-.1-.79.25-1.11ZM40.4,40.28s.09.03.14.04c-.09.28-.19.56-.28.84-.04-.02-.09-.03-.13-.05.09-.28.18-.56.27-.83ZM40.08,38.72c0-.05-.01-.1-.02-.15.29-.08.59-.16.96-.26-.12.26-.19.43-.28.63-.21-.07-.43-.15-.66-.22ZM40.34,49.49c.17.06.3.1.45.16.07-.15.14-.29.21-.43.03,0,.06.01.08.02-.04.34-.08.68-.12,1.01-.2.02-.39.04-.62.07v-.82ZM41.03,52.91c.06.05.13.11.22.19-.09.05-.16.11-.17.1-.06-.05-.11-.11-.13-.17,0-.02.06-.08.09-.11ZM41.22,55.99c.21-.24.35-.1.49,0h-.49ZM42.15,58.23c-.35-.13-.63-.24-.99-.38.46-.1.7.09.99.38ZM41.37,43.78v-.81c.27.23.25.47,0,.81ZM41.51,47.72c-.06,0-.11-.01-.17-.02.04-.17.07-.34.11-.51.27.21.16.37.06.53ZM41.27,38.83s.07-.06.11-.09c.11.13.23.25.34.38-.04.04-.09.08-.13.12-.1-.13-.21-.27-.31-.4ZM41.62,45.1c.11.23.17.36.25.53q-.38-.18-.25-.53ZM41.56,41.28c.06-.22.12-.43.18-.65.05.01.09.02.14.03-.05.22-.09.45-.14.67-.06-.02-.12-.04-.18-.06ZM40.46,34.96c-.22.11-.44.22-.69.34,0-.49.1-.56.64-.47.02.04.04.09.05.13ZM40.08,33.02c-.21.2-.34.32-.49.46-.12-.51-.11-.51.49-.46ZM39.41,36.56c.26.32.83.33.76.84-.01.11-.09.22-.17.43-.2-.38-.21-.77-.6-.88-.03,0,0-.25.01-.39ZM40.01,42.21c-.08.35-.15.64-.22.94-.33-.36-.27-.67.22-.94ZM39.8,40.97c.02.21.03.39.05.63q-.36-.39-.05-.63ZM39.54,46.22c.17,0,.34.04.51.08.31.08.35.24.18.49-.12.16-.22.34-.43.65-.03-.35-.05-.58-.08-.83-.2-.01-.38-.03-.57-.04,0-.28.2-.34.39-.34ZM40.33,48.8s-.06.04-.09.06c-.2-.08-.39-.15-.7-.27.25-.09.43-.22.57-.19.1.02.15.26.22.4ZM40.15,57.43c-.23.05-.46.1-.68.15-.01-.04-.02-.08-.04-.12.23-.27.46-.53.72-.83.15.32-.5.52,0,.8ZM39.98,52.5q.35-.16.79.08c-.33.24-.55.18-.79-.08ZM40.77,60.25c.11-.32.21-.61.35-1.02.4.7.33.86-.35,1.02ZM42.61,52.09c.13.06.31.1.11.34-.09-.1-.17-.19-.27-.3.07-.02.13-.05.16-.03ZM42.6,59.74c-.33-.05-.62-.09-.91-.14.4-.47.51-.45.91.14ZM42.38,50.39v.92c-.21-.23-.36-.39-.57-.63.21-.11.35-.18.57-.29ZM41.7,44.64c.1-.26.26-.33.58-.25-.17.26-.33.34-.58.25ZM42.6,42.69c-.31.16-.45.05-.58-.15.16.04.32.08.58.15ZM41.52,30.42c.21-.04.41-.09.71-.15-.44.5-.45.5-.71.15ZM43.35,28.86q.3.32.27.63c-.28-.1-.28-.31-.27-.63ZM42.62,32.76c.2.12.29.17.4.24q-.22.18-.4-.24ZM43.47,31.76s-.19,0-.3,0c.1-.43.2-.82.29-1.21.03,0,.06,0,.1,0,.07.21.2.43.18.64-.01.2-.16.4-.28.58ZM44.98,29.05c-.04-.11-.1-.19-.09-.26.03-.18.08-.36.15-.64.12.18.21.3.29.41-.12.16-.21.3-.34.48ZM45.95,29.61c-.08-.09-.27-.1-.45-.15.11-.26.24-.27.43-.16.2.11.41.18.64.28-.17.16-.34.36-.62.04ZM47.58,28.99c.03-.1.2-.26.24-.24.14.06.25.19.45.36-.22.13-.34.25-.46.25-.24.01-.28-.2-.23-.37ZM47.83,34.4c.17-.24.29-.4.45-.63q.08.54-.45.63ZM49.45,34.99q-.32-.29,0-.6v.6ZM50.2,32.66c-.02.07-.04.14-.06.2-.19-.06-.38-.13-.64-.21.34-.29.5-.06.69,0ZM49.93,35.09c-.01-.11-.04-.17-.02-.21.1-.21.23-.24.42-.03-.13.08-.25.15-.4.24Z"/>
        <path d="M42.81,48.99v-.4c-.01.11-.07.23-.22.35.08.02.15.03.22.05Z"/>
        <path d="M41.72,29.64c.22-.06.35-.09.47-.12-.16-.11-.3-.17-.47.12Z"/>
      </g>
      <path d="M30.14,62.05v-1.96c0-.59-.44-1.08-1.03-1.08h-3.77c-.33,0-.58,0-.75-.04,0,.01-.01.03-.02.04-.03,0-.07-.01-.1-.02,0-.02,0-.04,0-.06-.34-.11-.34-.41-.34-1.21v-2.75c-.03-.09-.04-.18,0-.26v-7.17c-.05-.03-.1-.09-.15-.13.04-.05.09-.11.15-.19v-2.42c0-.73.54-1.27,1.27-1.27l1.42-.05h1.03c.59,0,1.03-.44,1.03-1.03v-2.1c0-.59-.44-1.08-1.03-1.08h-2.45c-.73,0-1.27-.59-1.27-1.27v-4.35c0-.68.54-1.27,1.22-1.27h1.76c-.18-.25-.12-.38.33-.68-.11.27-.19.48-.27.68h.99c-.11-.33.03-.65.42-.93.15.26.29.52.45.81-.05.03-.09.07-.12.11h.1c.68,0,1.22-.54,1.22-1.22v-1.81c0-.68-.54-1.22-1.22-1.22h-5.36c-.02.12-.09.25-.22.39-.02-.16-.06-.28-.12-.39h-.78s.02.09.03.15c-.1-.06-.17-.1-.25-.15h-.44c-.98,0-1.76.83-1.76,1.81v.37c.14.07.29,0,.54-.21.05-.04.12-.07.3-.17-.09.19-.11.28-.16.34-.35.4-.35.4.12.72-.09.23-.18.46-.28.72-.15-.05-.3-.1-.49-.16.1-.19.2-.38.35-.66-.14-.1-.26-.18-.37-.26v10.31c.14.1.26.18.4.28-.17.03-.27.06-.4.08v.03c.09.17.09.3,0,.4v1.31c.17-.07.31-.04.49.16-.16.07-.31.08-.49.07v7.04c.13-.08.28-.14.51-.25-.18.48-.32.84-.48,1.25,0-.01-.02-.02-.03-.04v1.64c.14.09.28.17.42.26.1-.07.21-.14.34-.23.1.08.22.15.29.26.05.08.04.23,0,.3-.04.05-.23.06-.28.01-.19-.21-.44.1-.51,0-.09-.13-.18-.12-.26-.09v1.32c.09-.15.25-.17.47-.16-.05.34-.2.4-.47.31v1.45c.04.06.09.16.16.31-.03.03-.07.06-.1.09-.02-.02-.04-.05-.06-.07v1.94c.06.11.06.26,0,.47v2.12c.18-.06.34-.12.5-.18.11.08-.42.27-.25.54-.05,0-.09.01-.14.02-.04-.06-.07-.12-.11-.17.03,1.35.8,1.68,1.76,1.68h2.38c.11-.1.26-.14.48-.1-.02.04-.03.07-.04.1h.91c-.01-.08-.03-.19-.06-.33.15.01.36-.01.37.03.12.36.4.21.66.23,0,.02.02.04.02.06h2.19c0-.06-.02-.13-.02-.21.11.07.21.14.31.21h.03c.83,0,1.03-.49,1.03-1.08ZM25.19,42.96c.24.05.48.1.72.16-.01.06-.03.12-.04.18-.24-.07-.47-.14-.71-.21.01-.04.02-.08.03-.13ZM28.03,31.5c-.05-.02-.11-.04-.16-.06.05-.12.09-.23.14-.35.04.01.08.03.12.04-.03.12-.07.25-.1.37ZM28.2,30.3c.1,0,.19.01.29.02,0,.05,0,.09-.01.14-.09-.02-.19-.04-.28-.07,0,0,0-.09,0-.09ZM27.8,29.25c.13.02.25.03.38.05,0,.04,0,.07,0,.11-.13-.01-.25-.02-.38-.03,0-.04,0-.08.01-.12ZM25.75,31.08s.14,0,.14.01c.01.09,0,.18,0,.27-.05,0-.09,0-.14,0v-.29ZM24.76,30.98s.08,0,.12,0c0,.12.02.24.02.36-.05,0-.11,0-.16,0,0-.12.01-.24.02-.35ZM20.33,56.15c-.06-.09-.12-.18-.18-.27.03-.02.07-.04.1-.06.06.09.11.18.17.27l-.09.06ZM24.41,42.37c-.22.09-.45.18-.67.27.11-.34.33-.45.67-.27ZM23.36,45.34c.01-.24.02-.4.03-.57q.42.01.45.51c-.14.02-.28.04-.48.07ZM23.56,46.89c-.17-.26-.26-.41-.39-.62.15-.03.28-.09.33-.05.22.16.1.35.06.67ZM23.64,38.8c.04-.07.07-.13.11-.2l.08.03c-.02.07-.05.15-.07.22l-.12-.06ZM23.96,31.41c-.08-.1-.16-.19-.24-.29.03-.03.07-.05.1-.08.07.1.14.2.21.3-.03.02-.05.04-.08.06ZM23.64,29.57c.07.12.13.23.25.46-.3-.07-.48-.11-.73-.17.19-.11.32-.19.48-.29ZM23.46,36.3s-.03.07-.05.11c-.05,0-.12.03-.16.01-.08-.04-.15-.11-.2-.24.14.04.27.08.41.12ZM22.82,32.74c-.05-.28-.08-.44-.11-.61.31.11.3.28.11.61ZM22.02,43.22c-.23.08-.38.14-.54.2.03-.41.09-.44.54-.2ZM21.57,41c.4-.03.25.43.47.52-.33-.01-.4-.23-.47-.52ZM22,51.34c-.19.03-.34.06-.5.09-.02-.03-.03-.07-.05-.1.11-.11.23-.21.37-.34.08.16.12.23.18.35ZM22.32,52.59c.06.02.09.13.15.13.36.04.36.03.19.35-.01.03-.05.05-.08.07-.21-.18-.42-.35-.76-.63.25.03.38.04.5.07ZM22.57,44.69s.04.1.07.14c-.17.08-.33.15-.6.28.13-.4.34-.4.54-.42ZM22.27,37.87c-.11.04-.22.07-.4.12.03.18.06.33.09.47-.25-.09-.49-.18-.75-.27.3-.3.65-.41,1.06-.32ZM21.31,41.96c-.53.12-.59.02-.31-.69.1.23.21.45.31.69ZM21.57,36.55c-.03-.22-.05-.45-.09-.73q.31.27.09.73ZM20.85,32.31s.08-.03.11-.05c.12.27.23.53.36.81-.41.01-.5-.13-.47-.76ZM20.33,36.76c.38.18.59.46.67.86-.54.07-.81-.28-.67-.86ZM21.1,46.45s-.07,0-.13,0c-.05-.23-.09-.44-.14-.66.06-.02.11-.06.16-.06.34.02.64.19.63.37-.02.33-.35.22-.52.34ZM21.31,61.7c-.04-.25-.06-.39-.1-.66q.26.34.1.66ZM21.18,56.82c.05-.23.1-.44.19-.79.16.27.27.44.37.61-.2.07-.37.12-.55.18ZM21.57,55.05c.73-.06.9.08.8.62-.26-.2-.5-.39-.8-.62ZM22.43,60.94s-.09-.1-.09-.11c.06-.08.13-.15.2-.21.01,0,.09.08.19.16-.13.07-.22.12-.31.15ZM22.27,59.04c-.15-.35-.07-.59.1-.87.14.12.27.22.47.38-.22.19-.37.32-.56.49ZM23.49,59.74c-.05-.01-.13-.11-.12-.14.02-.07.1-.12.15-.18.04.06.08.11.14.19-.07.05-.13.13-.17.12ZM23.32,53.53c.37.22.47.41.16.72-.04-.21-.09-.41-.16-.72ZM23.71,49.05c-.15-.09-.26-.15-.38-.23-.07.14-.13.29-.2.44-.4-.2-.04-.49-.13-.72.18-.05.36-.1.58-.15.02-.17.05-.39.08-.65.25.34.27.7.06,1.3ZM24.74,61.76c-.09-.08-.19-.15-.28-.23l.06-.09c.11.07.21.13.32.2-.03.04-.06.07-.09.11ZM26.11,61.66c-.12-.05-.25-.1-.37-.15.01-.04.02-.08.03-.11.14.03.27.06.41.1-.03.05-.05.11-.08.16ZM28.11,59.6c.05.27.09.49.13.69-.42-.2-.43-.22-.13-.69ZM29.24,59.55c.25.14.48.25.7.38.17.09.18.14.1.56-.24-.09-.48-.18-.76-.28-.01-.2-.02-.42-.04-.66Z"/>
      <g>
        <path d="M73.43,9.47s-.06.07-.08.12c.08-.02.14-.04.2-.05-.04-.02-.07-.05-.11-.07Z"/>
        <path d="M71.21,13.43c-.02-.07-.03-.12-.04-.17l-2.05.93,4.14.6.56,3.77.5-.96c-.16-.04-.25-.17-.31-.4.16.05.3.1.44.15l1.17-2.22.96.14c.06-.05.14-.1.23-.15.07.12.03.16-.03.18l.4.06s0,0,0,0c0,0,0,0,0,0l1.92.28s-.34-.72-.98-1.69c-.07-.02-.15-.04-.23-.06.06-.02.11-.03.17-.04-.11-.16-.22-.32-.34-.49-.02.09-.04.17-.06.26-.05-.01-.1-.03-.16-.04.03-.13.06-.26.09-.39-.18-.24-.37-.48-.58-.73v-.02c-.11-.04-.23-.07-.37-.12.21-.11.33-.09.45,0l1.22-2.31-2.56,1.16c-.16-.14-.33-.28-.5-.41.05.13.09.26.09.38-.01.2-.16.4-.28.58-.03.05-.19,0-.3,0,.1-.4.19-.76.27-1.13-.4-.31-.79-.58-1.15-.81-.1.11-.21.22-.33.35-.17-.28-.32-.46-.39-.67-.01-.05-.02-.09-.03-.14-.47-.28-.78-.43-.78-.43l.53,3.58-1.31.6c-.16.15-.27.25-.4.37ZM73.85,10.23c-.44.5-.45.5-.71.15.21-.04.41-.09.71-.15ZM72.78,10.04c-.05-.02-.12-.02-.15-.05-.16-.21.09-.22.11-.34.05.01.09.03.14.04-.03.12-.06.23-.09.35ZM74.52,15.65c-.07-.16-.11-.24-.13-.32-.05-.23-.15-.39-.42-.39-.23,0-.23-.14-.18-.31.65.13.79.3.72,1.02ZM74.24,12.71c.2.12.29.17.4.24q-.22.18-.4-.24ZM76.88,13.04c.08.09.13.14.2.22-.26.21-.64.27-.71.65,0,.03-.18.03-.34-.05.27-.26.53-.51.85-.82ZM75.41,13.42c.06.14.11.27.17.41-.03.04-.06.07-.09.11-.17-.06-.34-.13-.62-.24.25-.12.37-.18.55-.27Z"/>
      </g>
      <path d="M90.32,44.46c-.09-.34-.17-.66-.19-.97-.02-.32.02-.64.05-.98.04-.4.08-.82.04-1.23-.04-.42-.19-.82-.33-1.2-.12-.33-.23-.63-.28-.94-.05-.31-.04-.64-.03-.98,0-.4.02-.82-.07-1.23-.08-.42-.28-.79-.47-1.16-.16-.31-.32-.6-.39-.9-.08-.3-.13-.62-.18-.93-.06-.4-.13-.82-.25-1.23-.09-.3-.14-.63-.18-.97-.06-.4-.11-.81-.25-1.21-.14-.4-.38-.75-.6-1.09-.19-.29-.38-.56-.5-.85-.12-.29-.16-.62-.21-.97-.05-.41-.11-.83-.29-1.22-.2-.42-.43-.82-.66-1.21-.14-.24-.28-.49-.41-.73l-.16-.3c-.29-.54-.59-1.1-.91-1.63-.22-.37-.54-.65-.84-.93-.26-.24-.51-.46-.68-.72-.18-.26-.31-.56-.45-.87-.17-.37-.34-.75-.59-1.08-.03-.04-.07-.08-.1-.12-.15.14-.3.28-.45.41.02.03.04.05.06.08.21.28.36.62.52.97.15.32.3.65.5.96.21.32.5.58.78.83.28.26.55.5.73.79.31.52.61,1.07.89,1.6l.16.31c.13.25.28.5.42.75.22.38.45.77.63,1.16.14.3.19.66.23,1.03.05.38.1.77.25,1.13.14.35.35.66.55.96.22.32.42.62.54.95.12.34.17.7.22,1.09.05.35.1.71.2,1.06.11.37.17.74.24,1.15.05.32.1.65.19.98.09.37.27.71.45,1.04.18.34.35.66.41.99.07.35.06.71.05,1.1,0,.35-.01.72.04,1.09.05.37.18.72.31,1.06.13.36.26.71.29,1.05.03.35,0,.72-.04,1.11-.04.35-.07.71-.06,1.08.02.37.11.74.21,1.09.1.37.19.73.19,1.07s-.11.69-.22,1.05c-.11.36-.22.73-.24,1.11-.04.74-.1,1.47-.17,2.16-.04.38,0,.76.05,1.12.05.38.09.74.04,1.08-.07.45-.17.9-.27,1.34-.06.27-.12.53-.17.8-.09.47-.22.94-.34,1.4-.06.24-.13.48-.19.71-.08.34-.26.65-.44.99-.17.32-.35.65-.46,1.01-.1.34-.16.68-.22,1.02-.07.39-.13.76-.26,1.1-.07.21-.15.42-.22.63-.16.47-.33.95-.52,1.41-.07.18-.15.36-.22.54-.2.49-.4.99-.63,1.46-.15.32-.26.65-.37.98-.13.38-.25.74-.42,1.06-.15.28-.43.51-.72.76-.3.25-.61.52-.82.86-.2.33-.31.7-.42,1.06-.11.37-.21.71-.4.99-.19.28-.47.51-.76.75-.29.24-.59.48-.82.79-.24.33-.36.72-.47,1.11-.11.37-.21.71-.41.96-.22.27-.51.49-.82.72-.29.22-.59.44-.84.72-.24.27-.44.57-.64.85-.22.33-.43.63-.68.89-.27.27-.58.5-.9.75-.26.2-.54.4-.79.63-.19.17-.38.35-.57.53-.34.32-.68.64-1.04.94-.41.34-.86.67-1.29.98-.15.11-.3.22-.45.33-.22.16-.44.33-.65.5-.35.28-.71.56-1.08.81-.16.11-.32.21-.47.32-.44.3-.89.61-1.35.88-.34.21-.71.37-1.09.55-.29.13-.58.27-.86.42-.33.18-.69.31-1.07.44-.31.11-.64.23-.95.38-.28.13-.55.28-.81.42-.37.2-.74.4-1.13.56-.43.18-.89.33-1.33.48-.24.08-.47.16-.71.24-.31.11-.62.25-.91.38-.38.17-.73.33-1.11.44-.33.1-.7.12-1.08.14-.36.02-.73.04-1.09.13-.22.05-.43.11-.65.17-.47.12-.96.25-1.45.35-.37.07-.72.22-1.05.37-.35.15-.69.3-1.03.35-.35.05-.73.04-1.12.02-.35-.02-.71-.03-1.07,0-.38.04-.76.02-1.16,0-.33-.01-.67-.03-1.01-.01-.37.02-.72.1-1.07.18-.38.09-.74.17-1.09.17s-.71-.08-1.09-.17c-.35-.08-.7-.16-1.07-.18-.28-.01-.55-.02-.83-.02-.46,0-.89-.02-1.33-.06-.08,0-.15-.01-.22-.01-.32,0-.63.06-.94.12-.38.07-.73.14-1.05.09-.32-.05-.64-.22-.97-.41-.34-.19-.69-.38-1.08-.46-.36-.07-.72-.08-1.08-.1-.39-.01-.75-.03-1.1-.11-.35-.09-.68-.25-1.03-.42-.32-.15-.64-.31-.99-.42-.57-.17-1.31-.4-2.05-.67-.28-.1-.57-.19-.86-.28-.42-.13-.81-.25-1.19-.41-.35-.14-.67-.34-1.01-.55-.28-.17-.58-.35-.89-.5-.36-.17-.77-.22-1.15-.27-.38-.05-.74-.09-1.02-.24l-.37-.2c-.51-.27-1.04-.55-1.54-.85-.31-.19-.59-.44-.88-.7-.26-.23-.53-.48-.83-.68-.57-.38-1.17-.8-1.77-1.25-.31-.23-.58-.5-.87-.78-.23-.23-.47-.46-.74-.68-.27-.22-.55-.41-.83-.59-.33-.22-.65-.43-.93-.68-.27-.24-.56-.44-.85-.64-.33-.22-.64-.43-.89-.69-.23-.23-.39-.56-.56-.9-.17-.34-.34-.7-.61-.99-.24-.27-.51-.49-.78-.72-.3-.25-.59-.49-.82-.77-.22-.27-.47-.51-.71-.75-.29-.28-.56-.55-.78-.85-.21-.28-.36-.62-.52-.98-.15-.32-.3-.66-.5-.97-.21-.31-.47-.57-.72-.83-.27-.28-.53-.54-.71-.84-.21-.34-.38-.71-.55-1.1-.13-.28-.27-.58-.42-.86-.18-.33-.3-.69-.43-1.07-.11-.32-.22-.65-.37-.96-.17-.37-.31-.74-.45-1.15-.1-.29-.21-.59-.33-.88-.15-.35-.36-.66-.58-.96-.22-.31-.43-.61-.55-.93-.17-.47-.31-.96-.45-1.44-.06-.21-.12-.43-.19-.64-.16-.54-.3-1.11-.44-1.66l-.11-.45c-.18-.73-.33-1.48-.46-2.13-.08-.41-.13-.83-.17-1.27-.03-.3-.06-.59-.11-.89-.05-.33-.12-.66-.2-.97-.09-.4-.18-.78-.22-1.17-.03-.29-.07-.58-.11-.87-.06-.43-.12-.87-.14-1.29-.02-.31.1-.65.23-1.01.13-.38.27-.76.27-1.17,0-.29-.01-.58-.02-.87-.02-.44-.03-.86,0-1.29.03-.53.08-1.07.14-1.59.02-.19.04-.37.06-.56.06-.66.14-1.41.25-2.15.04-.25.07-.5.1-.75.06-.48.12-.94.21-1.39.08-.38.05-.78.02-1.15-.03-.38-.05-.74.03-1.06.08-.31.29-.61.51-.92.22-.32.45-.65.57-1.03.11-.37.14-.75.16-1.11.03-.38.05-.74.17-1.06.1-.27.19-.55.27-.82.13-.41.27-.84.43-1.24.12-.3.37-.57.63-.85.26-.28.53-.58.7-.94.17-.35.24-.73.32-1.09.08-.37.15-.73.31-1.02.15-.27.28-.56.41-.84.18-.37.36-.76.57-1.11.12-.21.25-.42.37-.63.24-.42.49-.85.76-1.24.18-.27.47-.48.78-.7.31-.23.64-.46.88-.78.21-.29.38-.6.55-.9.19-.34.37-.67.6-.95.23-.28.42-.6.59-.91.2-.34.38-.66.62-.92.24-.26.54-.48.86-.71.29-.21.59-.42.85-.68.25-.25.56-.44.88-.64.3-.19.62-.38.89-.63.53-.48,1.06-.94,1.63-1.41.31-.25.53-.59.74-.92.21-.32.4-.63.66-.82.29-.21.62-.37.98-.53.32-.15.65-.3.95-.5l.17-.11c.54-.36,1.09-.73,1.65-1.07.29-.18.57-.38.84-.58.32-.24.63-.47.96-.65.32-.17.67-.28,1.05-.4.33-.1.67-.21,1-.37.39-.19.81-.34,1.21-.5.27-.1.53-.2.8-.31.64-.27,1.3-.52,2.02-.78.28-.1.55-.21.82-.32.39-.16.8-.32,1.2-.44l.51-.16c.51-.16,1.04-.32,1.57-.45.35-.09.68-.22,1-.35.37-.15.71-.29,1.07-.36.32-.06.68-.02,1.06.02.38.04.76.09,1.15.03.26-.04.53-.08.79-.13.44-.08.89-.15,1.35-.2.26-.03.52-.06.78-.09.45-.05.92-.11,1.38-.13.29-.01.59-.04.88-.07.42-.04.86-.08,1.28-.08.36,0,.71-.04,1.05-.09.39-.05.77-.09,1.13-.08.35.02.7.12,1.07.24.35.11.7.22,1.08.25.4.04.79.12,1.2.21.3.06.61.13.93.17.2.03.4.06.6.08.53.07,1.03.14,1.54.24.37.07.74.08,1.1.08.38,0,.75,0,1.09.09.34.08.66.26,1,.44.32.17.65.34,1,.45l.13.04c.66.2,1.29.39,1.93.62.77.28,1.42.52,2.02.77.39.16.77.36,1.14.56.26.14.52.28.79.4.37.18.78.21,1.19.24.38.03.74.06,1.02.21.34.18.66.41,1,.65.18.13.37.26.56.39.12-.17.24-.33.36-.49-.19-.12-.37-.25-.57-.39-.34-.24-.69-.49-1.06-.7-.39-.21-.83-.24-1.25-.28-.36-.03-.7-.06-.97-.19-.26-.12-.52-.26-.77-.39-.38-.2-.78-.41-1.19-.58-.61-.25-1.26-.5-2.05-.78-.65-.23-1.31-.43-1.95-.63l-.13-.04c-.3-.09-.59-.24-.89-.41-.36-.19-.73-.39-1.14-.49-.41-.1-.82-.1-1.23-.11-.35,0-.67,0-.98-.07-.53-.1-1.06-.18-1.57-.25-.2-.03-.39-.05-.59-.08-.3-.04-.6-.11-.89-.17-.41-.09-.83-.17-1.27-.22-.31-.03-.62-.13-.95-.23-.39-.12-.79-.24-1.22-.26-.42-.02-.83.03-1.23.08-.34.04-.66.08-.98.08-.45,0-.9.04-1.34.08-.29.03-.57.05-.86.06-.48.02-.96.08-1.42.14-.25.03-.51.06-.76.09-.47.05-.94.13-1.39.2-.26.04-.52.09-.78.13-.31.05-.64,0-.99-.03-.41-.05-.83-.09-1.25-.01-.41.08-.8.24-1.18.39-.32.13-.61.25-.92.33-.54.14-1.08.3-1.6.46l-.51.16c-.43.13-.85.3-1.25.46-.27.11-.53.21-.8.31-.72.26-1.39.52-2.05.79-.26.11-.52.21-.78.3-.41.16-.84.32-1.26.51-.29.14-.59.23-.92.33-.39.12-.78.25-1.15.45-.37.2-.71.45-1.04.7-.27.2-.52.39-.79.55-.57.34-1.14.72-1.68,1.08l-.17.11c-.26.18-.56.31-.87.46-.37.17-.75.35-1.08.6-.35.26-.58.62-.81.98-.19.3-.37.59-.61.78-.58.47-1.12.94-1.65,1.43-.23.21-.51.38-.8.56-.34.21-.7.43-.99.73-.22.22-.49.41-.77.61-.33.24-.67.48-.95.79-.28.31-.49.67-.7,1.02-.17.3-.34.58-.54.82-.27.32-.47.69-.67,1.04-.16.3-.32.57-.51.83-.18.24-.45.44-.74.65-.34.25-.69.5-.93.86-.28.41-.53.85-.78,1.28-.12.21-.24.42-.36.62-.23.38-.42.78-.6,1.17-.13.27-.26.55-.4.81-.2.37-.28.79-.37,1.19-.07.34-.14.67-.27.95-.13.27-.36.52-.6.79-.28.31-.57.63-.74,1.03-.17.42-.32.86-.45,1.29-.09.27-.17.54-.27.8-.14.4-.17.82-.2,1.22-.03.35-.05.68-.14.98-.09.29-.28.57-.49.86-.24.35-.49.7-.6,1.13-.1.41-.07.84-.05,1.25.02.35.05.69-.01.99-.09.48-.16.96-.22,1.43-.03.24-.06.49-.1.73-.11.75-.18,1.51-.25,2.18-.02.19-.04.37-.06.55-.05.53-.11,1.08-.14,1.63-.02.45,0,.9,0,1.34,0,.28.02.57.02.85,0,.3-.11.63-.23.97-.14.4-.28.81-.26,1.24.02.45.08.91.14,1.35.04.29.08.57.1.85.04.43.14.84.23,1.25.07.32.14.62.19.92.04.29.07.57.1.86.05.44.09.89.18,1.33.13.65.28,1.41.47,2.16l.11.45c.14.56.28,1.13.45,1.69.06.21.13.42.19.64.14.49.29.99.46,1.48.14.4.39.75.62,1.08.2.29.39.56.51.84.11.28.22.57.32.85.14.4.28.81.47,1.2.13.28.24.58.35.9.13.38.27.78.47,1.15.14.27.27.55.4.83.18.38.36.78.58,1.15.22.36.51.66.8.95.24.25.47.48.65.74.18.26.31.56.45.88.17.37.34.75.59,1.09.25.34.55.63.85.92.24.23.47.46.67.7.27.32.59.59.9.85.26.22.51.42.72.66.21.23.35.53.51.85.18.37.37.76.68,1.06.3.3.64.53.98.76.28.19.55.37.78.59.31.28.66.52,1,.74.28.18.54.36.78.56.24.2.46.41.7.64.29.29.59.58.94.84.61.45,1.22.88,1.8,1.27.26.18.5.39.76.62.3.27.61.55.97.77.51.31,1.05.59,1.57.87l.37.2c.38.2.81.26,1.23.31.36.04.69.09.97.22.28.13.55.3.83.47.35.21.7.43,1.09.59.41.17.84.3,1.25.43.28.09.56.17.83.27.75.27,1.51.5,2.08.68.3.09.59.23.9.38.36.18.74.36,1.15.46.41.1.82.12,1.22.13.34.01.67.02.98.08.3.06.59.22.9.4.37.21.75.42,1.18.48.42.06.84-.02,1.25-.09.35-.07.68-.13.99-.1.46.05.93.05,1.38.06.27,0,.54.01.81.02.31.02.63.09.96.16.39.09.8.18,1.23.18s.83-.09,1.23-.18c.33-.08.65-.15.96-.16.31-.01.64,0,.95.01.41.02.83.03,1.25,0,.32-.03.64-.02.98,0,.4.02.82.04,1.23-.02.42-.06.81-.23,1.18-.39.32-.14.62-.27.93-.33.51-.1,1.01-.23,1.49-.36.21-.06.43-.11.64-.17.31-.08.63-.1.98-.12.4-.02.82-.05,1.22-.17.41-.12.8-.3,1.18-.47.3-.13.58-.26.86-.36.23-.08.47-.16.7-.24.45-.15.92-.31,1.37-.5.41-.17.8-.38,1.18-.58.26-.14.52-.28.79-.4.28-.13.58-.24.89-.35.38-.14.78-.28,1.15-.48.27-.14.55-.27.83-.4.38-.18.78-.36,1.15-.58.47-.28.93-.59,1.38-.9.16-.11.31-.21.47-.32.39-.26.76-.55,1.12-.84.21-.17.42-.33.64-.49.15-.11.3-.22.45-.33.44-.32.89-.65,1.31-1,.37-.31.73-.64,1.07-.97.19-.18.37-.35.56-.52.23-.21.48-.4.75-.6.33-.25.67-.5.97-.8.3-.3.53-.64.76-.98.19-.28.37-.55.58-.79.21-.23.47-.43.75-.64.33-.24.66-.5.93-.82.28-.34.4-.76.52-1.17.1-.35.2-.68.38-.92.18-.25.44-.46.72-.68.32-.26.65-.53.89-.88.24-.35.36-.76.47-1.15.1-.34.19-.66.35-.92.15-.26.41-.48.69-.71.32-.27.66-.56.86-.94.2-.37.33-.77.46-1.16.11-.32.21-.63.34-.91.23-.49.44-1,.64-1.5.07-.18.14-.36.22-.53.2-.48.37-.97.53-1.45.07-.21.14-.42.22-.62.14-.4.21-.81.28-1.2.06-.33.11-.64.21-.95.09-.3.25-.59.41-.89.19-.36.4-.73.5-1.14.06-.23.12-.47.18-.7.13-.47.25-.95.35-1.44.05-.26.11-.52.17-.78.1-.45.21-.92.28-1.39.06-.42.01-.83-.04-1.24-.04-.35-.08-.68-.05-.99.07-.69.14-1.44.17-2.19.01-.31.11-.63.21-.96.12-.4.24-.8.24-1.23s-.11-.83-.21-1.23Z"/>
    </g>
  </g>
</svg>