<?xml version="1.0" encoding="UTF-8"?>
<svg id="Layer_2" data-name="Layer 2" xmlns="http://www.w3.org/2000/svg" viewBox="0 0 457.87 60">
  <g id="Layer_1-2" data-name="Layer 1">
    <g>
      <path d="M6.71,9.97v20.84c0,1.14.9,2.12,2.12,2.12h4.09c.98,0,1.72.82,1.72,1.8v3.52c0,.98-.74,1.72-1.72,1.72h-1.72l-2.37.08c-1.23,0-2.12.9-2.12,2.12v8.01c0,2.04,0,2.13,2.04,2.13h6.29c.98,0,1.72.82,1.72,1.8v3.27c0,.98-.33,1.8-1.72,1.8H2.94c-1.64,0-2.94-.57-2.94-2.94V3.76C0,2.12,1.31.73,2.94.73h11.93c1.14,0,2.04.9,2.04,2.04v3.02c0,1.14-.9,2.04-2.04,2.04h-6.13c-1.14,0-2.04.98-2.04,2.12Z"/>
      <path d="M42.18.33c11.28,0,10.63,11.53,10.63,15.61,0,.65-.57,1.14-1.23,1.14h-3.51c-.74,0-1.31-.57-1.31-1.31.08-2.78-.17-9.07-3.84-9.07,0,0-4.99-.65-4.99,6.79v32.7c0,7.44,4.17,7.44,4.17,7.44,4.66,0,5.15-7.03,5.15-10.06,0-.74.57-1.31,1.31-1.31h3.19c.73,0,1.31.57,1.31,1.23.16,4.09-.25,16.43-11.28,16.43,0,0-10.3.33-10.3-10.63V13.9S31.06.33,42.18.33Z"/>
      <path d="M89.92,10.79v38.42c0,5.97-4.82,10.79-10.71,10.79s-10.79-4.82-10.79-10.79V10.79c0-5.97,4.82-10.79,10.79-10.79s10.71,4.82,10.71,10.79ZM83.22,11.03c0-2.29-1.8-4.09-4.01-4.09s-4.09,1.8-4.09,4.09v37.93c0,2.21,1.8,4,4.09,4s4.01-1.8,4.01-4V11.03Z"/>
      <path d="M158.92,59.18h-3.44c-.57,0-.98-.49-.98-.98v-.9c-1.23,1.47-2.94,2.45-5.4,2.53,0,0-10.3.41-10.3-10.63V13.81s-.49-13.24,10.71-13.57c11.2,0,10.14,11.53,10.14,15.7,0,.65-.65,1.14-1.31,1.14h-3.52c-.73,0-1.31-.65-1.23-1.31,0-2.78.33-9.07-3.35-9.07,0,0-4.99-.08-4.99,6.79v32.7c0,7.44,4.17,7.44,4.17,7.44,4.58,0,4.58-7.11,4.58-10.14v-2.37c0-1.47-1.23-2.7-2.7-2.7h-1.47c-.82,0-1.55-.65-1.55-1.55v-2.53c0-.9.65-1.63,1.55-1.63l6.79-.08c1.8,0,3.27,1.47,3.27,3.27v22.32c0,.49-.49.98-.98.98Z"/>
      <path d="M190.06,52.64c1.55,0,1.88-.25,1.88,1.88v2.78c0,1.47.08,1.88-1.88,1.88h-12.67c-1.55,0-1.88-.49-1.88-1.88V2.7c0-1.39-.17-1.88,1.88-1.88h3.02c1.8,0,1.88.33,1.88,1.88v47.99c0,1.06.9,1.96,1.96,1.96h5.8Z"/>
      <path d="M231.18,59.18h-4.33c-.9,0-1.06-.65-1.23-1.55l-.98-6.7c-.25-1.8-1.72-3.11-3.43-3.11h-4.58c-1.72,0-3.27,1.31-3.52,3.02l-.98,6.79c-.08.9-.08,1.55-.98,1.55h-4.58c-1.06,0-1.06-.98-.9-2.04l8.5-53.05c.49-2.62,1.39-3.19,3.19-3.19h3.02c1.8,0,2.78.82,3.19,3.19l8.5,53.05c.16,1.06.16,2.04-.9,2.04ZM217.37,39.48h3.02c1.39,0,2.53-1.23,2.29-2.62l-2.78-19.86c-.16-1.06-1.8-1.06-1.88,0l-2.86,19.86c-.25,1.39.82,2.62,2.21,2.62Z"/>
      <path d="M256.77,58.45l-5.23-20.27c-.49-1.96-.49-2.29-.49-2.29-.25-.65-.82-1.06-.9.08,0,0-.08.25-.17,2.29l-1.14,19.37c-.08,1.06-.65,1.8-1.96,1.8l-3.03-.08c-1.55.16-1.88-.9-1.8-1.96l3.27-52.48c.25-3.68.82-3.92,2.78-3.84,1.15.16,1.8-.25,2.62,2.78.82,3.02,3.43,14.22,5.23,21.91l2.21,9.24c.57,2.45,1.31,1.39,1.63,0,1.8-7.44,5.56-24.2,6.79-28.61,1.39-5.07,1.64-5.23,3.27-5.31.49,0,2.54-.49,2.7,2.37l3.27,54.03c.08,1.23-.25,1.96-1.72,1.96l-3.11.08c-1.06,0-1.88-.82-1.96-1.8l-1.06-19.62c-.08-1.64-.16-1.8-.16-1.8-.17-.82-.49-.82-.82-.16,0,0-.08.16-.49,1.72l-5.15,20.6c-.08.57-.65,1.06-1.23,1.06h-2.12c-.65,0-1.15-.49-1.23-1.06Z"/>
      <path d="M310.64,22.48c-.17,19.05-12.02,21.75-12.02,21.75-3.03,1.06-4.33,1.23-4.33,3.68l-.08,9.48c0,1.72-.82,1.88-1.88,1.88h-2.78c-.98,0-1.88-.17-1.88-1.88V4.9c0-2.29,1.55-4.17,3.84-4.17h7.11c7.11,0,12.1,9.73,12.02,21.74ZM303.94,22.56c0-6.38-.9-10.46-3.68-13.16-.82-.82-1.39-1.14-2.86-1.39-1.63-.25-3.11.98-3.11,2.62v24.44c0,1.39.66,2.2,2.62,1.88,3.27-.57,7.03-4.66,7.03-14.39Z"/>
      <path d="M373.34,52.64c1.55,0,1.88-.25,1.88,1.88v2.78c0,1.47.08,1.88-1.88,1.88h-12.67c-1.55,0-1.88-.49-1.88-1.88V2.7c0-1.39-.17-1.88,1.88-1.88h3.02c1.8,0,1.88.33,1.88,1.88v47.99c0,1.06.9,1.96,1.96,1.96h5.8Z"/>
      <path d="M392.14,59.27c-1.06,0-1.88-.41-1.88-1.47V2.04c0-1.06.82-1.31,1.88-1.31h3.03c1.06,0,1.88.49,1.88,1.55v55.5c0,1.06-.82,1.47-1.88,1.47h-3.03Z"/>
      <path d="M414.71,59.18c-1.64,0-2.94.25-2.94-2.12V3.76c0-1.63,1.31-3.02,2.94-3.02h11.93c1.06,0,1.96.9,1.96,2.04v3.02c0,1.14-.9,2.04-1.96,2.04h-6.13c-1.14,0-2.12.9-2.12,2.12v20.76c0,1.15.41,2.13,2.12,2.13h4.09c.98,0,1.8.73,1.8,1.72v3.52c0,.98-.82,1.8-1.8,1.8h-4.09c-1.14,0-2.04.98-2.04,2.13l-.08,8.01v7.68c0,1.39-1.14,1.47-2.45,1.47h-1.23Z"/>
      <path d="M447.65,9.97v20.84c0,1.14.9,2.12,2.13,2.12h4.09c.98,0,1.72.82,1.72,1.8v3.52c0,.98-.73,1.72-1.72,1.72h-1.72l-2.37.08c-1.23,0-2.13.9-2.13,2.12v8.01c0,2.04,0,2.13,2.04,2.13h6.29c.98,0,1.72.82,1.72,1.8v3.27c0,.98-.33,1.8-1.72,1.8h-12.1c-1.64,0-2.94-.57-2.94-2.94V3.76c0-1.63,1.31-3.02,2.94-3.02h11.93c1.15,0,2.04.9,2.04,2.04v3.02c0,1.14-.9,2.04-2.04,2.04h-6.13c-1.14,0-2.04.98-2.04,2.12Z"/>
      <path d="M124.78,26.02l-20.95-1.1,17.03,12.2s.18-4.23-1.08-8.93c-1.36-5.07-4.87-9.91-4.87-9.91l-6.61,19.16,16.47-11.43Z"/>
      <path d="M324.67,26.07l17.5,11.56-8.49-19.15s-2.3,3.56-3.6,8.24c-1.4,5.06-.83,11-.83,11l15.41-13.16-19.99,1.5Z"/>
    </g>
  </g>
</svg>