<?xml version="1.0" encoding="UTF-8"?>
<svg id="Layer_2" data-name="Layer 2" xmlns="http://www.w3.org/2000/svg" viewBox="0 0 90.56 112">
  <defs>
    <style>
      .cls-1 {
        fill: #fff;
      }
    </style>
  </defs>
  <g id="Layer_1-2" data-name="Layer 1">
    <g>
      <g>
        <path class="cls-1" d="M14.09,104.9v2.96c0,.16.13.3.3.3h.58c.14,0,.24.12.24.26v.5c0,.14-.1.24-.24.24h-.58c-.17.01-.3.14-.3.31v1.14c0,.29,0,.3.29.3h.89c.14,0,.24.12.24.25v.46c0,.14-.05.26-.24.26h-1.72c-.23,0-.42-.08-.42-.42v-7.44c0-.23.19-.43.42-.43h1.69c.16,0,.29.13.29.29v.43c0,.16-.13.29-.29.29h-.87c-.16,0-.29.14-.29.3Z"/>
        <path class="cls-1" d="M19.12,103.54c1.6,0,1.51,1.63,1.51,2.21,0,.09-.08.16-.17.16h-.5c-.1,0-.19-.08-.19-.19.01-.39-.02-1.29-.55-1.29,0,0-.71-.09-.71.96v4.64c0,1.06.59,1.06.59,1.06.66,0,.73-1,.73-1.43,0-.1.08-.19.19-.19h.45c.1,0,.19.08.19.17.02.58-.03,2.33-1.6,2.33,0,0-1.46.05-1.46-1.51v-5.02s-.06-1.92,1.52-1.92Z"/>
        <path class="cls-1" d="M25.9,105.02v5.45c0,.85-.68,1.53-1.52,1.53s-1.53-.68-1.53-1.53v-5.45c0-.85.68-1.53,1.53-1.53s1.52.68,1.52,1.53ZM24.94,105.06c0-.32-.26-.58-.57-.58s-.58.25-.58.58v5.38c0,.31.26.57.58.57s.57-.25.57-.57v-5.38Z"/>
        <path class="cls-1" d="M35.68,111.88h-.49c-.08,0-.14-.07-.14-.14v-.13c-.17.21-.42.35-.77.36,0,0-1.46.06-1.46-1.51v-5.02s-.07-1.88,1.52-1.92c1.59,0,1.44,1.63,1.44,2.23,0,.09-.09.16-.19.16h-.5c-.1,0-.19-.09-.17-.19,0-.39.05-1.29-.48-1.29,0,0-.71-.01-.71.96v4.64c0,1.06.59,1.06.59,1.06.65,0,.65-1.01.65-1.44v-.34c0-.21-.17-.38-.38-.38h-.21c-.12,0-.22-.09-.22-.22v-.36c0-.13.09-.23.22-.23h.96c.26-.01.46.2.46.45v3.16c0,.07-.07.14-.14.14Z"/>
        <path class="cls-1" d="M40.1,110.96c.22,0,.27-.03.27.27v.39c0,.21.01.27-.27.27h-1.8c-.22,0-.27-.07-.27-.27v-7.74c0-.2-.02-.27.27-.27h.43c.26,0,.27.05.27.27v6.81c0,.15.13.28.28.28h.82Z"/>
        <path class="cls-1" d="M45.93,111.88h-.61c-.13,0-.15-.09-.17-.22l-.14-.95c-.03-.26-.24-.44-.49-.44h-.65c-.24,0-.46.19-.5.43l-.14.96c-.01.13-.01.22-.14.22h-.65c-.15,0-.15-.14-.13-.29l1.21-7.52c.07-.37.2-.45.45-.45h.43c.25,0,.39.12.45.45l1.21,7.52c.02.15.02.29-.13.29ZM43.97,109.09h.43c.2,0,.36-.17.32-.37l-.39-2.82c-.02-.15-.26-.15-.27,0l-.41,2.82c-.03.2.12.37.31.37Z"/>
        <path class="cls-1" d="M49.56,111.78l-.74-2.88c-.07-.28-.07-.32-.07-.32-.03-.09-.12-.15-.13.01,0,0-.01.03-.02.32l-.16,2.75c-.01.15-.09.26-.28.26h-.43c-.22.01-.27-.14-.25-.29l.46-7.44c.03-.52.12-.56.39-.54.16.02.26-.03.37.39.12.43.49,2.02.74,3.11l.31,1.31c.08.35.19.2.23,0,.26-1.06.79-3.43.96-4.06.2-.72.23-.74.46-.75.07,0,.36-.07.38.34l.46,7.66c.01.17-.03.28-.24.28h-.44c-.15.01-.27-.1-.28-.24l-.15-2.78c-.01-.23-.02-.26-.02-.26-.02-.12-.07-.12-.12-.02,0,0-.01.02-.07.24l-.73,2.92c-.01.08-.09.15-.17.15h-.3c-.09,0-.16-.07-.17-.15Z"/>
        <path class="cls-1" d="M57.2,106.68c-.02,2.7-1.7,3.08-1.7,3.08-.43.15-.61.17-.61.52v1.34c-.01.24-.13.27-.28.27h-.39c-.14,0-.27-.02-.27-.27v-7.44c0-.32.22-.59.54-.59h1.01c1.01,0,1.72,1.38,1.7,3.08ZM56.25,106.69c0-.9-.13-1.48-.52-1.87-.12-.12-.2-.16-.41-.2-.23-.03-.44.14-.44.37v3.47c0,.2.09.31.37.27.46-.08,1-.66,1-2.04Z"/>
        <path class="cls-1" d="M66.09,110.96c.22,0,.27-.03.27.27v.39c0,.21.01.27-.27.27h-1.8c-.22,0-.27-.07-.27-.27v-7.74c0-.2-.02-.27.27-.27h.43c.26,0,.27.05.27.27v6.81c0,.15.13.28.28.28h.82Z"/>
        <path class="cls-1" d="M68.76,111.9c-.15,0-.27-.06-.27-.21v-7.91c0-.15.12-.19.27-.19h.43c.15,0,.27.07.27.22v7.87c0,.15-.12.21-.27.21h-.43Z"/>
        <path class="cls-1" d="M71.96,111.88c-.23,0-.42.03-.42-.3v-7.56c0-.23.19-.43.42-.43h1.69c.15,0,.28.13.28.29v.43c0,.16-.13.29-.28.29h-.87c-.16,0-.3.13-.3.3v2.94c0,.16.06.3.3.3h.58c.14,0,.25.1.25.24v.5c0,.14-.12.25-.25.25h-.58c-.16,0-.29.14-.29.3v1.14s-.01,1.09-.01,1.09c0,.2-.16.21-.35.21h-.17Z"/>
        <path class="cls-1" d="M76.63,104.9v2.96c0,.16.13.3.3.3h.58c.14,0,.24.12.24.26v.5c0,.14-.1.24-.24.24h-.58c-.17.01-.3.14-.3.31v1.14c0,.29,0,.3.29.3h.89c.14,0,.24.12.24.25v.46c0,.14-.05.26-.24.26h-1.72c-.23,0-.42-.08-.42-.42v-7.44c0-.23.19-.43.42-.43h1.69c.16,0,.29.13.29.29v.43c0,.16-.13.29-.29.29h-.87c-.16,0-.29.14-.29.3Z"/>
      </g>
      <path class="cls-1" d="M30.84,107.18l-2.97-.16,2.42,1.73s.03-.6-.15-1.27c-.19-.72-.69-1.4-.69-1.4l-.94,2.72,2.34-1.62Z"/>
      <path class="cls-1" d="M59.19,107.19l2.48,1.64-1.2-2.72s-.33.5-.51,1.17c-.2.72-.12,1.56-.12,1.56l2.19-1.87-2.84.21Z"/>
      <g>
        <path class="cls-1" d="M90.54,43.18c-.02-.41-.04-.81-.07-1.21.02-.4.03-.81,0-1.2-.02-.21-.07-.41-.14-.61-.02-.23-.05-.46-.08-.69-.16-1.24.26-2.58,0-3.8-.26-1.22-1.27-2.25-1.63-3.45-.07-.23-.12-.46-.16-.69-.04,0-.08-.02-.13-.03.04-.02.07-.05.11-.08-.18-.97-.23-1.98-.58-2.9-.33-.84-.88-1.57-1.37-2.34-.04-.09-.08-.19-.13-.28-.11-.23-.25-.45-.41-.66-.13-.26-.24-.53-.35-.8-.03.09-.06.18-.08.26-.05.23-.05.46-.08.75-.73-.04-.59.59-.77,1.22-.24-.6-.52-.87-1.04-.91.24-.19.48-.38.73-.58v-.64c.29.07.52.13.74.18.11-.33.21-.57.32-.73-.28-.74-.55-1.48-.96-2.16-.64-1.07-.95-2.38-1.68-3.4-.18-.25-.36-.49-.55-.73-1.63,1.77-3.96,2.88-6.56,2.88-1.48,0-2.88-.36-4.1-1-.02,0-.04,0-.05,0,0-.01,0-.03,0-.04-2.82-1.5-4.74-4.46-4.74-7.87,0-1.94.62-3.73,1.67-5.19-.99-.6-1.69-1.74-2.67-2.33-.02.06-.03.12-.05.18-.43-.12-.86-.23-1.29-.35.02-.06.03-.12.05-.18.43.11.86.23,1.29.34-.07-.04-.14-.09-.22-.13-.77-.37-1.68-.39-2.56-.5-.04-.02-.07-.04-.11-.06-.43-.18-.9-.25-1.37-.34-.62-.29-1.19-.69-1.78-1.05-.31.18-.63-.17-.94.05-.06.26-.14.58-.22.96-.25-.52-.29-.99-.1-1.19.19-.2.38-.23.57-.19-.19-.09-.39-.17-.59-.23-1.2-.35-2.44-.62-3.66-.87-.13-.03-.27-.05-.4-.06.05.14.09.25.13.35-.19.07-.38.13-.57.2-.03-.06-.07-.11-.1-.17.11-.12.21-.25.34-.4-1.05-.09-2.14.08-3.18-.04-1.24-.15-2.46-.32-3.71-.36-1.25-.05-2.47.07-3.72.13-1.25.06-2.54-.4-3.77-.25-1.24.16-2.52.2-3.75.46-1.22.26-2.26,1.26-3.46,1.62-1.19.36-2.35.74-3.51,1.2-.27.05-.52.11-.77.21-.13.05-.25.12-.36.19-.81.27-1.62.52-2.39.89-1.12.55-2.02,1.46-3.1,2.1-.05.03-.1.06-.15.09-.04.06-.09.11-.16.17v-.08c-.25.15-.51.3-.76.45-.3.11-.59.23-.85.4-.21.14-.41.32-.59.51-.21.14-.43.29-.64.44-.04.03-.09.06-.13.09.02.07.04.14.06.22-.07,0-.14.02-.21.02,0-.04,0-.09-.01-.13-.94.62-1.98,1.09-2.85,1.83-.76.65-1.71,1.12-2.51,1.74.14.06.28.12.42.19-.45.35-.83.66-1.33,1.05.09-.25.18-.43.23-.62-.81.86-1.47,1.9-2.24,2.81-.8.95-1.27,2.17-2,3.19-.73,1.03-1.72,1.87-2.35,2.94-.38.65-.63,1.36-.89,2.07.08.05.16.1.23.16-.07.08-.13.17-.2.25-.05-.03-.1-.07-.14-.1-.14.37-.28.74-.45,1.09-.33.68-.56,1.39-.78,2.1-.04.07-.08.15-.12.22.06.23.02.48-.04.76-.07-.07-.12-.14-.17-.21-.07.23-.12.47-.18.71-.45,1.14-1,2.22-1.34,3.39-.35,1.2-.83,2.36-1.09,3.58-.25,1.23-.69,2.43-.84,3.67-.15,1.24-.22,2.51-.26,3.75-.05,1.25-.2,2.52-.15,3.77.06,1.25.49,2.48.65,3.72.16,1.24.49,2.44.75,3.67.1.49.24.96.4,1.43,0,.04.01.07.02.11.03.13.08.26.14.39.19.54.38,1.09.54,1.64.36,1.19.59,2.42,1.04,3.58.46,1.16.76,2.39,1.32,3.51.55,1.12,1.33,2.11,1.98,3.19.64,1.07.96,2.36,1.69,3.38.73,1.01,1.44,2.07,2.26,3.03.81.94,2.04,1.52,2.94,2.4.4.4.84.75,1.29,1.09.08.1.16.2.25.29.19.17.42.29.67.4.24.18.48.37.71.56.33.28.65.59.96.9.28-.31.51-.57.75-.84,0,.63-.05.77-.63.97.53.53,1.06,1.07,1.68,1.51,1.03.73,1.87,1.75,2.94,2.38,1.08.64,2.44.77,3.56,1.31,1.13.55,2.21,1.19,3.37,1.64,1.17.45,2.34.9,3.53,1.25.9.26,1.79.55,2.69.78.05-.03.1-.06.15-.1,0,.05,0,.09-.01.13.26.07.53.13.79.18,1.23.25,2.47.45,3.71.6,1.24.15,2.49.48,3.74.53,1.25.05,2.52-.18,3.77-.24.45-.02.9-.11,1.34-.22-.02-.32-.04-.63-.07-.95.36.44.5.63.44.85.65-.18,1.3-.39,1.96-.47,1.24-.16,2.59.3,3.81.04,1.22-.26,2.36-.9,3.56-1.26,1.19-.36,2.42-.67,3.58-1.13,1.1-.43,1.98-1.34,3.03-1.9,0,0,.01,0,.02,0,.05-.03.1-.06.15-.08,1.12-.55,2.23-1.05,3.31-1.7,1.07-.64,2.53-.7,3.55-1.43,1.01-.73,2.02-1.52,2.97-2.34.94-.81,1.48-2.08,2.36-2.98.87-.88,2.02-1.53,2.83-2.5.8-.95,1.35-2.11,2.08-3.14.34-.48.62-.99.88-1.51-.06-.05-.12-.11-.16-.18-.01-.03.12-.18.14-.17.05.03.09.06.14.1.26-.51.52-1.03.81-1.52.64-1.08,1.44-2.06,1.99-3.17.55-1.13.82-2.36,1.27-3.52.17-.44.43-.84.7-1.24-.3.16-.59.22-.89.26-.02-.4-.04-.77-.06-1.14.22.08.47.18.73.25.17.05.35.08.58.12.35-.5.68-1.01.84-1.57.35-1.2.5-2.49.75-3.71.05-.24.07-.48.07-.72-.13-.3-.26-.58-.39-.88.12-.04.23-.07.33-.08-.06-.52-.14-1.04-.15-1.54.12-.52.27-1.04.32-1.58.07-.73.02-1.48.05-2.21.01-.26,0-.53-.03-.8.05-1.15.1-2.27.05-3.42ZM1.26,49.43c-.06-.03-.12-.06-.18-.09.15-.26.3-.51.45-.78-.34-.42.33-.85-.08-1.28.06-.03.11-.05.17-.08.17.08.35.17.57.27-.33.67-.33,1.46-.93,1.95ZM2.02,41.33c-.06-.16-.12-.33-.22-.6.42.12.53.26.22.6ZM18.7,62.35q-.91-.32-.83-1.12c.32.43.54.73.83,1.12ZM18.14,51.71c.1.19.21.37.33.58q-.48-.03-.33-.58ZM17.68,26.29c.12.14.23.27.4.47-.44.11-.51-.09-.4-.47ZM17.65,20.78c.15-.19.3-.38.57-.72.03.43.05.71.09,1.11-.31-.18-.46-.28-.65-.39ZM17.71,14.26c-.12.36-.19.55-.27.79q-.23-.39.27-.79ZM17.82,16.71c.16.35.32.7.49,1.05-.04.03-.08.05-.12.08-.15-.2-.31-.4-.42-.55-.32-.14-.63.38-.88-.13.29-.14.58-.27.94-.45ZM17.48,37.47c.03.14.06.27.09.41-.05,0-.1.02-.15.03-.03-.13-.06-.26-.08-.39,0,0,.09-.03.14-.05ZM17.3,22.94c-.02-.2-.04-.4-.05-.6.06-.01.13-.02.19-.04.05.2.09.4.14.6-.09.01-.18.03-.28.04ZM16.49,14.35c-.07-.25-.15-.5-.22-.75q.56.24.22.75ZM16.23,16.48c.02-.07.15-.16.23-.16.08,0,.16.11.3.23-.19.09-.3.16-.42.18-.03,0-.13-.18-.11-.25ZM16.46,22.48c.09.49-.1.59-.32.66-.07-.06-.14-.13-.2-.19.14-.13.28-.25.52-.47ZM15.84,24.68c-.51.12-.79-.03-.91-.62.46.07.77.18.91.62ZM13.82,35.22c-.18-.62-.31-1.08-.47-1.61.15,0,.3-.04.34,0,.28.34.33.87.13,1.6ZM13.5,26.63s.11.13.17.2c-.08.06-.17.12-.27.2-.07-.1-.15-.2-.14-.22.06-.08.15-.16.24-.18ZM11.65,15.24c.12-.09.34-.05.51-.06,0,.18.07.45-.02.54-.32.32-.73.41-1.19.26.25-.27.45-.54.7-.73ZM12.07,24.95c-.17.04-.34.08-.51.12-.02-.05-.03-.09-.05-.14l.51-.18c.01.07.03.14.04.2ZM11.46,27.87c-.24-.16-.39-.26-.63-.42.43-.12.63-.08.63.42ZM10.8,33.53c.01.11-.03.24-.05.35-.11-.06-.32-.13-.31-.18.02-.24.03-.53.17-.69.24-.27.54-.24.82.12-.27.04-.49.07-.78.11.07.12.15.19.16.27ZM10.83,44.77v.48h-.19c.01-.16.03-.32.04-.48.05,0,.1,0,.15,0ZM10.95,30.68c-.03.39-.25.55-.53.75-.1-.46.08-.65.53-.75ZM10.51,21.71c-.3-.16-.46-.25-.74-.4.43-.15.61-.09.74.4ZM8.81,25.86c-.14-.11-.28-.22-.46-.37.38-.17.61-.17.46.37ZM8.77,27.22s.06.09.1.14c-.17.12-.34.24-.51.36-.04-.06-.07-.12-.11-.18.17-.11.35-.21.52-.32ZM8.17,47.44c.14.11.26.24.38.37-.06.05-.12.11-.18.16-.14-.13-.28-.26-.46-.43.12-.05.23-.12.25-.1ZM8.58,55.78v1.01c-.38-.46-.25-.74,0-1.01ZM6.35,33.08c0-.08-.01-.15-.02-.23.17.01.34.02.5.03,0,.06,0,.11,0,.17-.16,0-.32.02-.49.03ZM7.33,37.88c.03.07.05.14.08.2-.2.09-.39.17-.59.26-.04-.09-.08-.18-.11-.27.21-.07.42-.13.63-.2ZM7.47,39.21c-.44.07-.73.11-1.11.17q.31-.66,1.11-.17ZM8.02,46.1s-.06.18-.12.2c-.33.13-.44-.07-.51-.34.29-.21.5-.14.63.14ZM7.57,41.84c.05-.02.1-.04.15-.05.04.12.08.23.11.35,0,0-.09.04-.13.06-.04-.12-.09-.24-.13-.36ZM7.44,27.49c.23.38.38.62.59.96-.31.06-.51.1-.73.14.05-.35.08-.62.15-1.1ZM7.95,31.46c-.19.56-.83.55-1.09,1.09-.14-.76.19-1.05,1.09-1.09ZM6.11,30.34c.16.16.32.32.56.55-.53.11-.59-.17-.56-.55ZM5.32,34.31s.11.08.17.14c-.05.09-.09.15-.13.22-.06-.07-.14-.13-.18-.2-.01-.03.08-.14.14-.15ZM5.27,54.84c.08.67-.53.42-.66.72.19.17.38.35.57.52-.04.06-.07.11-.11.17-.27-.15-.54-.3-.95-.53.43-.33.75-.58,1.14-.88ZM4.03,37.04c.07,0,.14.06.22.24-.16.03-.32.05-.48.08-.01-.08-.02-.15-.03-.23.1-.03.19-.08.29-.09ZM2.38,41.83c.21-.19.4-.4.63-.55.06-.04.26.16.55.35-.33,0-.86.22-1.04.34l-.15-.14ZM3.6,43.9c.08.15.16.3.24.44-.13.05-.25.1-.38.16-.04-.17-.08-.34-.12-.51.09-.03.17-.06.26-.09ZM3.46,54.54c.2.38.31.6.49.94q-.51-.26-.49-.94ZM4.5,63.04c-.05-.4-.08-.65-.12-.96.58.24.5.52.12.96ZM5.1,61.53c-.79-.02-.59-.83-1.06-1.08.38.06.76.11,1.24.18-.06.27-.12.59-.18.9ZM5.12,59.37c.34.37.88.29,1.1.76-.66.03-.84-.09-1.1-.76ZM6.63,52.38c.45.79.37,1.11-.34,1.14.13-.43.23-.79.34-1.14ZM7.27,62.57c-.41-.12-.52-.38-.63-.77.48.11.66.31.63.77ZM6.78,48.48c.06.15.11.27.2.5-.19-.05-.39-.04-.44-.13-.17-.26-.06-.5.17-.69.25-.21.37-.2.86.11-.28.08-.52.14-.78.21ZM8.49,61.34s0,0-.01,0c.12.3.24.6.36.92-.14.06-.37.14-.62.25-.17-.32-.35-.67-.58-1.12.31-.02.57-.03.84-.04,0,0,0-.01,0-.02l.02.02s-.02-.02-.02-.02c0,0,.01,0,.02-.01-.02-.22-.05-.45-.07-.67-.03-.37.14-.61.59-.71-.18.49,0,1.06-.52,1.38,0,0,0,.02,0,.03ZM10.65,48.75c.56,1.03-.18,1.57-.6,2.21.17-.5.34-1,.51-1.51-.05-.03-.09-.05-.14-.08-.23.18-.46.36-.78.6-.07-.88.75-.7,1-1.22ZM10.96,64.32c-.5-.58-.89-1.04-1.28-1.49.28-.3.43-.05.63.03.4.15.23.8.75.82-.03.19-.06.37-.1.65ZM10.69,50.6c.24-.08.44-.15.68-.23-.02-.13-.03-.28-.05-.43.08.01.17.01.18.03.07.27.12.55.2.91-.45.06-.75.15-1-.29ZM12.16,27.59c.23.16.44.31.71.49-.16.2-.31.39-.48.6-.06-.07-.11-.12-.15-.19-.1-.17-.19-.35-.35-.64.06-.05.16-.15.28-.26ZM12.1,63.7q-.25-.43.08-.81c-.03.3-.05.49-.08.81ZM12.28,47.6c-.06,0-.12-.02-.19-.03.02-.15.05-.3.07-.44.04,0,.08,0,.12,0v.47ZM12.84,66.6c-.17-.13-.33-.26-.56-.43.16-.05.26-.12.29-.09.15.11.28.24.42.36-.05.05-.1.11-.15.16ZM12.37,55.49c.08-.01.16-.03.24-.04.02.2.05.4.07.6-.06.01-.13.02-.19.03-.04-.2-.08-.39-.12-.59ZM13.23,51.7c-.32-.42-.6-.8-.92-1.23.35-.13.52-.07.73.23.23.31.49.55.19,1.01ZM13.29,43.39c-.12-.16-.25-.33-.37-.49.07-.04.14-.09.21-.13.11.17.22.34.32.52-.05.04-.1.07-.16.11ZM13.61,39.92c.59-.03,1.13-.06,1.84-.1.05.11.16.36.28.65-1.01.1-1.73-.1-2.12-.55ZM14.35,61.33c-.06,0-.13.01-.19.02-.02-.18-.05-.37-.07-.55.03-.02.06-.03.09-.05.06.09.14.17.17.27.03.1,0,.21,0,.32ZM14.31,53.59c-.26-.22-.25-.23.22-.71.06.22.11.43.18.72-.16,0-.32.05-.4,0ZM14.67,58.88c.24.4.39.63.54.87-.51-.03-.62-.29-.54-.87ZM15.02,55.26c-.08.01-.17-.08-.25-.13.07-.1.13-.23.22-.28.04-.02.17.11.3.2-.11.09-.18.2-.27.21ZM14.21,52.09c-.51-.45-.51-.63-.11-1.33q.27.27.05.56c.61.9.72.95,1.66.74-.14.27-.29.54-.47.88-.41-.3-.8-.55-1.14-.85ZM16.25,73.93c-.04.24-.01.42-.09.52-.26.35-.46.16-.74-.2.32-.12.52-.2.84-.32ZM16.48,33.35c-.09.43-.15.7-.21.98-.07,0-.14-.02-.22-.02-.08-.33-.15-.66.42-.96ZM15.6,76.81c.01-.06.02-.11.03-.17.15.03.3.06.45.08.03-.19.05-.36.07-.54.06,0,.11,0,.17,0,.02.26.03.52.05.92-.34-.13-.56-.21-.78-.3ZM16.46,63.99c.03.25.07.5.12.87-.41-.31-.4-.56-.12-.87ZM16.14,26.44s-.05-.08-.08-.12c.15-.11.3-.22.45-.33.04.05.09.11.13.16-.17.1-.33.19-.5.29ZM16.55,21.35s-.16-.14-.15-.16c.05-.08.13-.16.21-.2.03-.01.11.09.23.19-.12.08-.2.15-.29.17ZM17.05,34.43c.06.16.12.31.17.47-.06.03-.12.06-.18.09-.08-.15-.16-.3-.23-.45.08-.03.16-.07.25-.1ZM17.31,50.8c-.53-.83-.52-.9.12-1.45q.37,1.08-.12,1.45ZM17.62,36.53s.09-.03.13-.04c.06.16.12.32.18.49-.06.02-.12.04-.18.06-.05-.17-.09-.34-.14-.5ZM17.8,79.23c.21-.47.41-.39.71-.03-.31.01-.51.02-.71.03ZM18.41,68.91q-.26-.38.6-.72c-.2.24-.39.47-.6.72ZM87.83,31.67c.06.03.11.06.17.09-.09.2-.17.39-.26.59-.08-.05-.15-.1-.23-.15.11-.18.22-.35.33-.53ZM86.51,49.34c-.04-.35-.05-.5-.07-.67q.37.16.07.67ZM86.15,27.7c.06.02.13.03.19.05-.04.18-.09.36-.13.54-.07-.01-.14-.03-.22-.04.05-.18.1-.37.16-.55ZM86.34,51.26c-.45-.24-.56-.65-.76-.99.53.07.78.36.76.99ZM85.33,52.63c.21.12.35.19.55.31-.2.11-.34.19-.55.31v-.62ZM84.96,51.96c.26-.1.46-.17.66-.24.02.08.05.16.07.24-.16.27-.33.46-.73,0ZM85.81,42.21c-.23.26-.42.46-.74.81-.12-.95-.1-.97.74-.81ZM84.57,28.79c.07,0,.13,0,.2,0-.01.27-.03.54-.05,1q-.32-.57-.15-1ZM82.85,22c.01-.13.07-.26.11-.38.07.01.13.03.2.04-.05.23-.11.47-.16.7-.04,0-.07,0-.11,0-.01-.12-.05-.24-.04-.35ZM83.02,60.63c-.25-.32-.5-.63-.83-1.04.4-.1.69-.17,1.16-.28q-.64.53-.33,1.33ZM82.81,64.01c-.11.03-.22.09-.33.08-.09,0-.18-.08-.27-.13.07-.11.13-.23.22-.31.02-.02.16.1.25.15.04.07.09.14.13.21ZM82.72,57.09c-.31.11-.54.19-.77.27-.03-.08-.06-.16-.09-.24.17-.34.38-.51.86-.04ZM81.73,50.64c.07-.23.14-.47.26-.85.35.51.25.74-.03.91-.05.03-.15-.03-.23-.06ZM82.11,58.01c.09.15.16.31.24.46-.09.03-.18.05-.27.08-.04-.16-.08-.33-.12-.49,0,0,.14-.06.14-.05ZM82,32.78c.09-.23.17-.43.29-.72.34.08.67.16,1.09.26-.41.61-.89.52-1.38.46ZM82.18,29.14c.03-.12.06-.24.1-.36,0-.02.09,0,.14,0-.04.13-.07.26-.11.4-.05-.01-.09-.02-.14-.04ZM81.96,26.25c.05-.06.14-.07.23-.12.3.37.09,1.11.82,1.1-.17.33-.32.65-.51,1.02-.1-.15-.3-.34-.27-.4.33-.6-.03-.92-.53-1.18.1-.18.16-.31.25-.41ZM81.06,27.62c.06,0,.12,0,.18.01-.01.18-.02.35-.03.53-.06,0-.13,0-.19-.01.01-.18.03-.35.04-.53ZM81.32,40.37c.7.52.68.69-.15,1.35q-.32-.59.15-1.35ZM80.61,62.48c-.02-.19-.04-.38-.07-.68.24.09.5.12.52.22.09.31-.1.46-.45.46ZM80.8,48.93c.06,0,.12,0,.18,0,0,.17-.02.34-.03.51-.05,0-.1,0-.15,0v-.51ZM80.6,56.41c.11.03.2.14.36.27-.17.1-.3.23-.34.21-.11-.06-.17-.19-.25-.3.08-.06.18-.19.24-.18ZM80.35,59.22c.08,0,.17.02.25.03-.02.2-.03.41-.05.61-.1-.02-.2-.03-.3-.05.03-.2.07-.4.1-.59ZM79.89,52.01c-.15.4-.32.39-.6.07.27-.03.43-.05.6-.07ZM79.2,39.84c.07-.01.14-.02.21-.04.04.22.07.43.12.72-.51-.2-.42-.44-.32-.68ZM79.4,22.02c.4.26.73.59.84,1.2-.61-.27-.79-.68-.84-1.2ZM80.2,20.92c-.27.03-.53.06-.83.09.13-.3.28-.6-.21-.75.79-.37.99-.22,1.04.66ZM79.08,29.97c.07.34.12.59.18.9q-.65-.22-.18-.9ZM78.69,51.07c-.27-.31-.41-.47-.56-.63q.43,0,.56.63ZM77.96,40.63v-.71c.5.3.17.5,0,.71ZM78.22,36.91c0,.1-.19.22-.36.4-.08-.29-.13-.47-.2-.7.3-.03.53.01.56.29ZM77.67,25.49c-.09-.47.08-.68.3-.87.07.31.05.58-.3.87ZM77.67,21.97c.09.04.18.08.27.12-.1.26-.21.52-.31.79l-.24-.09c.09-.27.18-.54.28-.82ZM76.61,33.39q.38-.28.85.24c-.37-.1-.62-.17-.85-.24ZM77.41,41.11c-.5-.26-.59-.59-.22-1,.07.33.15.66.22,1ZM77.36,20.84c-.12.12-.24.25-.41.42-.15-.48.12-.46.41-.42ZM76.79,21.42c.18.01.35.13.51.24.03.02-.02.26-.08.29-.17.07-.38.15-.55.11-.13-.03-.22-.23-.38-.4.2-.1.35-.24.49-.24ZM76.12,30.81c-.04-.31-.08-.58-.13-.96.63.36.63.37.13.96ZM76.07,32.67c.02.16.04.31.05.47-.06,0-.12.02-.18.03-.02-.16-.05-.31-.07-.47.07,0,.13-.02.2-.03ZM74.48,21.2c.19.53.3.85.42,1.17.04,0,.09-.02.13-.03.05-.19.09-.37.14-.56.05,0,.09-.02.14-.03.09.28.18.57.26.84-.56.38-1.02.4-1.41-.22.09-.31.18-.65.33-1.18ZM72.09,53.51h-.84q.36-.3.84,0ZM71.75,47.42c.08-.05.16-.14.25-.15.07,0,.15.07.31.17-.18.1-.28.2-.35.19-.08-.01-.14-.13-.21-.2ZM71.53,56.32c.05.29.08.48.12.72.19.06.4.12.65.19-.04.15-.07.28-.13.52-.43-.36-.78-.65-1.2-.99.23-.18.36-.28.57-.44ZM72.19,51.84c-.03-.24-.07-.48-.12-.85.54.3.37.57.32.82l-.2.03ZM74.63,56.37c-.28.3-.42.44-.56.6-.58-.12-1.18-.18-1.73-.83.81.08,1.47.15,2.29.23ZM73.21,53.58c.15-.27.28-.55.45-.89.3.35.57.67.84.98-.03.04-.05.08-.08.12-.22-.12-.44-.24-.7-.38-.25.33-.5.66-.8,1.07-.23-.51.15-.66.28-.9ZM72.62,37.29v-.72c.07,0,.15,0,.22,0,.01.24.02.47.03.71-.08,0-.17.01-.25.02ZM74.05,31.01h-1.04c.38-.32.62-.24,1.04,0ZM73.01,27.98c-.06-.01-.13-.02-.19-.03.02-.16.04-.31.06-.47.05,0,.11,0,.16,0-.01.16-.02.33-.03.49ZM73.69,31.7s.06-.06.09-.09c.11.06.26.1.31.19.29.57.17.8-.64,1.17.1-.19.15-.31.22-.4.09-.11.2-.19.32-.3-.13-.24-.21-.4-.3-.57ZM73.88,25.04c.75.2.94.58.55,1.18-.19-.41-.36-.78-.55-1.18ZM74.54,34.64c-.09-.22,0-.51.01-.77.06,0,.11,0,.17,0,.14.26.28.53.5.92-.28-.06-.64-.05-.68-.16ZM73.6,21.1c.11.22.2.41.31.63q-.66-.04-.31-.63ZM73.9,23.19c.08.03.07.27.1.42-.06.03-.12.05-.19.08-.15-.1-.29-.21-.63-.44.39-.04.58-.11.72-.05ZM72.71,25.34c.16.05.32.1.48.16-.01.04-.02.08-.04.12-.16-.04-.33-.09-.49-.13.01-.05.03-.1.04-.15ZM72.72,29.34c.1.22.18.39.29.62h-1.03c.29-.25.48-.41.74-.62ZM71.98,36.4s.1.03.14.05c-.05.15-.1.31-.14.46-.06-.03-.13-.07-.19-.1.06-.14.13-.27.19-.41ZM72.79,43.47c-.66-.04-.92-.59-1.49-.72q.37-.15,1.49.72ZM71.31,30.62c.05-.03.16.02.24.04-.04.18-.08.37-.15.65-.28-.32-.39-.51-.09-.68ZM70.45,55.91c.39-.07.58,0,.65.38-.35.13-.49-.06-.65-.38ZM70.98,41.93c-.23.23-.16.76-.74.75.1-.46.18-.83.74-.75ZM70.35,37.86s.1.07.15.11c-.12.16-.24.32-.36.48-.05-.04-.1-.07-.15-.11.12-.16.24-.32.36-.48ZM69.96,56.61c-.34.22.11.87-.56.96,0-.24-.03-.49,0-.72.04-.2.15-.39.26-.66.11.17.2.29.29.42ZM69.47,49.99v-.43s.09,0,.13,0v.43s-.09,0-.13,0ZM68.99,21.66c.06-.12.13-.25.22-.43.16.33.29.62.43.92-.38.11-.69.19-1.11.31-.09-.24-.19-.5-.33-.87.37.03.58.05.8.07ZM69.05,39.65c.09.18.15.32.23.48-.37.08-.7.14-1.1.22.19-.39.58-.43.87-.71ZM68.94,55.82c-.06.02-.11.04-.17.06-.06-.16-.12-.31-.18-.47.06-.03.12-.05.18-.08.06.16.11.32.17.48ZM67.89,39.68c-.07-.32-.11-.5-.18-.81.47.23.48.42.18.81ZM67.69,46.55c.06.13.13.25.19.38-.03.02-.07.04-.1.05-.07-.12-.14-.25-.21-.37.04-.02.08-.04.12-.06ZM66.58,35.26c.19.22.38.43.63.72-.42.08-.84.15-1.35.25.26-.34.49-.65.72-.96ZM66.22,26.33c.4-.25.6-.25.7.03.02.06-.12.25-.13.25-.16-.06-.31-.14-.57-.28ZM66.81,38.98c-.39-.05-.61-.07-.84-.1,0-.06,0-.12-.01-.18.27-.11.53-.15.85.28ZM66.84,48.4c-.07,0-.15.01-.22.02,0-.15,0-.29,0-.44,0-.01.1-.02.15-.03.02.15.04.3.06.45ZM66.23,48.55c.06.06.15.11.18.19.04.09.04.2.05.3-.04.01-.08.03-.12.04-.07-.15-.14-.3-.21-.46.03-.03.07-.05.1-.08ZM66.66,53.33c.26.18.46.31.69.47-.24.3-.58.51-.91.2-.29-.27-.01-.5.22-.67ZM67.05,52.22c.05-.13.09-.25.15-.38,0,0,.09.03.14.04-.04.13-.09.26-.13.39-.05-.02-.11-.04-.16-.06ZM67.83,54.94s.03.08.05.11c-.32.31-.63.61-.95.92-.1-.17-.24-.37-.44-.7.49-.12.92-.23,1.35-.34ZM67.55,49.5c-.22-.07-.39-.13-.55-.18.16-.23.3-.45.55-.81v.99ZM67.39,22.45c-.06.15-.11.3-.17.45-.06-.02-.11-.04-.17-.06.06-.15.12-.3.18-.44.05.02.11.04.16.06ZM67.06,18.18c-.21.16-.37.28-.68.52-.02-.36-.03-.58-.04-.9.3.16.48.26.72.39ZM66.86,5.58c.22.31.37.51.51.71-.63.13-.72-.11-.51-.71ZM66.96,9.14c-.14.23-.23.39-.38.63-.12-.17-.23-.26-.25-.37-.05-.45.23-.34.62-.26ZM66.33,4.76c.07.02.15.05.22.07-.06.21-.11.42-.17.63-.06-.02-.13-.03-.19-.05.05-.22.09-.43.14-.65ZM66.21,6.12c-.24.24-.47.48-.79.8-.06-.85-.02-.9.79-.8ZM65.66,7.32c-.03.32-.04.48-.06.74-.22-.16-.38-.27-.62-.44.24-.1.4-.18.68-.3ZM65.43,15.55c-.05.03-.11.05-.16.08-.05-.13-.1-.27-.15-.4.04-.02.08-.04.12-.06.06.13.13.25.19.38ZM65.02,16.26c.08.19.15.37.23.56-.06.03-.12.06-.18.09-.06-.2-.12-.4-.18-.6.04-.02.09-.03.13-.05ZM64.64,18.27c-.19-.53-.36-.99-.53-1.46.56.06.77.6.53,1.46ZM64.08,23.49c.05.02.1.03.15.05-.05.15-.09.3-.14.45-.06-.03-.13-.06-.19-.09.06-.14.12-.28.18-.41ZM63.57,6.11c.07.08.13.16.24.29-.13.08-.21.14-.29.19-.05-.09-.15-.18-.15-.27,0-.07.13-.14.2-.21ZM63.4,7.56c.12.05.23.09.35.14-.03.06-.05.12-.08.18-.1-.06-.21-.11-.31-.18-.01,0,.02-.09.04-.14ZM62.73,13.42c.1.45.18.83.28,1.33-.25-.08-.44-.08-.47-.16-.16-.38-.14-.76.19-1.17ZM62.19,14.9c.14.04.29.08.43.12-.03.06-.05.13-.08.19-.13-.07-.26-.13-.39-.2.01-.04.03-.07.04-.11ZM61.9,12.85c-.12.21-.25.41-.45.75-.17-.57.06-.71.45-.75ZM60.23,8.61c.1.05.17.06.19.1.18.29,0,.38-.44.53.12-.31.18-.47.25-.63ZM60.47,54.79c-.02.51.63.67.28,1.16-.6-.28-.62-.34-.28-1.16ZM60.44,53.88c.07-.08.13-.15.22-.25.08.07.19.14.18.16-.03.09-.09.2-.17.22-.06.02-.15-.09-.23-.14ZM60.29,59.63c.07.15.13.31.2.46-.05.03-.1.05-.15.08-.05-.17-.11-.34-.16-.5.04-.01.07-.03.11-.04ZM60.01,57.64c.11-.39.18-.62.24-.85.29.32.33.58-.24.85ZM60.18,42.97c.03-.22.05-.43.08-.65.06,0,.11,0,.17.01v.66c-.08,0-.17-.01-.25-.02ZM60.1,14.89c.07.15.15.29.22.43-.04.03-.08.05-.13.08-.09-.13-.19-.26-.28-.39.06-.04.12-.08.19-.12ZM59.86,21.81c.04.14.09.27.13.41-.05.02-.1.04-.15.06-.06-.13-.13-.26-.19-.39.07-.03.14-.05.21-.08ZM58.74,3.57c-.2.38-.33.6-.45.83-.06-.03-.11-.06-.17-.09.03-.28.01-.58.61-.75ZM59.52,30.96c-.32.04-.55.07-.63.08-.29-.3-.5-.51-.78-.79.62-.05,1.02.19,1.41.71ZM59.41,39s-.09.07-.14.11c-.1-.13-.2-.26-.3-.4.04-.04.09-.07.13-.11.1.13.21.26.31.39ZM58.14,34.26c-.05.46-.07.83-.45,1.03-.08.04-.27-.1-.39-.15.29-.3.52-.56.83-.89ZM58.15,48.74c-.07.15-.16.3-.24.45-.08-.07-.15-.13-.23-.2.11-.11.22-.23.34-.33.01,0,.13.08.13.09ZM57.6,42.84v.82c-.32-.35-.31-.53,0-.82ZM56.89,52.41s-.09.02-.13.03c-.04-.16-.09-.33-.13-.49.05,0,.1,0,.16-.01.03.16.07.31.1.47ZM56.76,17.95c-.03.11-.08.22-.12.33-.06-.03-.12-.07-.18-.1.06-.1.12-.2.19-.29,0,0,.11.06.11.07ZM55.93,63.56c.21-.28.38-.49.62-.81q-.03.65-.62.81ZM56.14,68.74c-.02-.18-.03-.37-.05-.61.48.15.36.37.05.61ZM55.97,69.55c-.17-.08-.34-.15-.51-.23,0-.03.02-.06.03-.08.19.06.39.12.58.18-.03.04-.06.09-.09.13ZM55.99,75.31c-.07,0-.15,0-.22,0-.04-.16-.1-.31-.11-.48,0-.06.08-.13.23-.34.05.37.07.59.1.81ZM55.49,47.26c.3-.36.58-.18.91.04-.28.48-.57.54-.9.26-.06-.05-.06-.25-.01-.31ZM56.55,4.81c.01.15.03.3.03.45,0,0-.13.03-.13.02-.05-.15-.08-.3-.12-.45.07,0,.15-.01.22-.02ZM56.3,20.59c.3.17.19.39.1.6-.08.01-.16.02-.25.03-.03-.19-.06-.38-.07-.58,0-.01.16-.08.21-.05ZM55.8,8.1c.02.07.02.15.02.23-.06.02-.11.03-.17.05-.06-.14-.17-.27-.17-.41,0-.15.27-.06.32.13ZM55.47,37.68c.06,0,.13.02.19.02-.04.16-.07.33-.11.49-.04,0-.08-.01-.11-.02,0-.17.02-.33.03-.5ZM55.2,46.17c.13.1.25.21.38.31l-.16.18c-.11-.12-.22-.25-.33-.37.04-.04.08-.08.11-.12ZM54.24,51.98c-.11-.15-.21-.3-.4-.56.53.01.57.21.4.56ZM53.45,17.06c.08.07.16.13.26.22-.09.09-.14.15-.19.21-.07-.08-.16-.15-.2-.24-.02-.04.08-.12.12-.18ZM53.71,30.17c-.05.36-.09.62-.14.96-.34-.43-.2-.66.14-.96ZM53.78,50.89c-.18.1-.36.21-.54.31-.03-.53.24-.45.54-.31ZM53.23,59.42s.13.05.2.08c-.07.14-.14.29-.21.43-.06-.03-.12-.06-.19-.09.06-.14.12-.29.2-.43ZM54.05,71.64q-.25.36-.74.21c.24-.07.48-.14.74-.21ZM53.18,62.15c-.06.14-.11.27-.17.41-.06-.06-.18-.14-.16-.16.05-.12.14-.22.22-.32.04.03.08.05.12.08ZM52.9,17.45c-.14-.21-.27-.41-.4-.61.52-.12.56-.06.4.61ZM52.53,22.03c-.05.01-.11.02-.16.04-.06-.18-.13-.35-.19-.53.04-.03.08-.05.12-.08.07.06.17.11.2.19.04.12.02.25.03.38ZM52.57.94c.06.04.13.08.21.13-.06.1-.1.16-.14.23-.06-.05-.16-.09-.17-.15-.01-.06.06-.13.1-.2ZM52.87,5.34c-.09.32-.15.52-.25.89-.23-.27-.37-.43-.61-.71.35-.07.57-.12.86-.18ZM52.07,38.07c-.12.13-.25.27-.37.4-.04-.05-.08-.09-.12-.14.13-.12.26-.24.39-.36.03.03.06.06.1.1ZM51.88,23.58s-.11.25-.13.24c-.18-.06-.35-.15-.52-.23.05-.1.1-.2.14-.3.17.09.35.18.51.28ZM51.58,21.3c-.27-.19-.4-.28-.55-.39q.37-.14.55.39ZM51.25,26.37c-.56.32-.61.3-.75-.5.32.22.53.36.75.5ZM50.2,10.68c-.02.11-.12.21-.19.32-.07-.08-.19-.15-.2-.24-.02-.08.07-.19.15-.36.12.14.26.22.24.28ZM50.1,3.29c-.06.33-.12.67-.18,1-.32-.41-.19-.73.18-1ZM49.19,11.8c.07.03.14.05.21.08l-.16.38s-.09-.03-.14-.05c.03-.14.06-.27.09-.41ZM47.75,3.31c-.02.15-.03.31-.05.46-.05,0-.1,0-.15,0,0-.15-.01-.31-.02-.46.07,0,.14,0,.21,0ZM46.52,12.6c.02.32.05.64.08,1.07-.49-.36-.35-.72-.31-1.06.08,0,.15,0,.23,0ZM46.37,24.37q-.65.59-.97.19c.33-.06.65-.12.97-.19ZM45.82,19.29c.06-.04.12-.09.18-.13.09.15.18.31.27.46-.04.03-.08.05-.11.08-.11-.14-.22-.27-.34-.41ZM45.72,8.65q-.14-.75.63-.9c-.26.38-.44.63-.63.9ZM45.91,3.84c.02.2.03.39.05.59-.06,0-.12.02-.18.03-.04-.19-.09-.39-.13-.58l.27-.04ZM45.25,12.56c.08.07.15.1.15.13.05.32-.05.49-.59.41.21-.26.32-.4.44-.55ZM45.29,21.2c0,.06,0,.13,0,.19-.24.03-.48.05-.71.08,0-.09,0-.18,0-.27h.71ZM43.91,10.22c.01.17.03.34.04.51-.04,0-.08.01-.12.02-.05-.17-.09-.33-.14-.5.07-.01.15-.02.22-.03ZM44.56,24.22c-.15.04-.3.09-.46.11-.17.03-.34.03-.59.05.31-.35.61-.5,1.05-.17ZM42.85.71c.06.19.13.39.19.57-.22.13-.25.05-.19-.57ZM41.19,6.3c.15.11.29.24.55.46-.54.07-.7-.08-.73-.41.09-.03.16-.07.18-.05ZM41.37,13.47c-.11.19-.21.38-.38.67-.22-.5.08-.59.38-.67ZM40.86,10.37q.05-.6.74-.61c-.26.22-.48.4-.74.61ZM41.5,22.99c.06.04.12.08.19.12-.1.12-.19.25-.29.37-.04-.03-.09-.06-.13-.08l.23-.41ZM41.06,1.12c.03.09.06.19.09.28-.2.04-.4.08-.6.12-.02-.08-.04-.15-.06-.23.19-.06.38-.11.57-.17ZM40.8,17.52c-.21-.16-.39-.29-.61-.46.46-.13.66-.02.61.46ZM39.83,14.71c-.09-.43-.17-.87-.25-1.28.76.47.79.6.25,1.28ZM37.32,37.73c-.07,0-.21-.14-.2-.19.01-.09.12-.22.2-.22.08,0,.18.11.32.21-.14.1-.23.2-.32.2ZM37.63,42.81v.79c-.35-.28-.38-.52,0-.79ZM36.23,51.52c-.08-.23-.16-.43-.3-.81.49.16.84.27,1.18.39,0,.05-.02.09-.03.14-.27.09-.53.18-.85.29ZM36.92,52.6v1.03c-.25-.15-.38-.24-.57-.35.19-.23.34-.41.57-.68ZM36.6,43.25c-.22.19-.44.37-.73.62q-.06-.6.73-.62ZM35.93,42.58s.11-.14.17-.21c.09.09.19.17.26.28.02.02-.08.12-.16.24-.11-.12-.22-.2-.27-.3ZM36.99,46.86c-.08-.12-.17-.2-.15-.24.03-.09.12-.17.18-.25.06.08.16.15.16.23,0,.08-.1.15-.18.27ZM37.61,23.18q-.45.37-1.15.31c.11-.4-.26-.78.02-1.3.35.43.4,1.09,1.13,1ZM36.57,18.02c.1-.11.19-.22.29-.33.05.05.1.1.14.15-.11.09-.22.19-.33.28-.03-.03-.07-.07-.1-.1ZM36.68,3.71s.05.1.07.15l-.45.24c-.02-.06-.05-.13-.07-.19.15-.07.3-.13.45-.2ZM37.1,6.56c-.26.06-.51.12-.89.21.3-.34.5-.58.89-.21ZM36,30.85c.15.06.29.13.5.23-.35.21-.5.18-.56-.09,0-.04.06-.14.07-.14ZM35.86,38.88c.14.2.28.41.42.61-.07.04-.14.08-.21.12-.12-.22-.23-.43-.35-.65.05-.03.1-.06.14-.09ZM35.26,15.84c-.07-.06-.13-.12-.2-.19.07-.07.14-.16.22-.21.03-.02.11.07.21.14-.1.1-.17.18-.23.25ZM35.43,55.3c-.01.07-.02.14-.03.22-.23-.06-.46-.12-.68-.19.02-.06.03-.12.05-.18.22.05.45.1.67.15ZM35.09,6.14c.09.01.18.08.34.16-.14.09-.22.17-.26.15-.09-.03-.17-.12-.25-.18.06-.05.12-.14.17-.14ZM34.37,20.69c.13.21.22.33.27.47.01.04-.09.12-.14.18-.11-.1-.24-.19-.32-.31-.03-.04.09-.17.19-.34ZM35.13,43.51c-.21.28-.32.5-.39.49-.23-.03-.44-.16-.62-.42.26-.02.52-.04,1.01-.08ZM33.33,56.64c-.1-.06-.09-.33-.13-.52.41.06.72.11,1.14.18-.36.31-.65.54-1.01.34ZM34.3,61.87v.79c-.56-.39-.56-.59,0-.79ZM33.83,8.6c.03.15.05.3.07.46,0,0-.13.03-.14.02-.06-.14-.11-.29-.16-.43.07-.02.15-.03.22-.05ZM33.77,53.54v.9c-.27-.13-.54-.31-.42-.69.04-.11.3-.15.42-.21ZM32.9,15.09c-.22-.14-.33-.21-.45-.29q.34-.24.45.29ZM32.34,12.1c.07,0,.15,0,.22,0v.47c-.07,0-.21,0-.21-.02-.01-.15,0-.3,0-.45ZM32.75,27.75c-.11.17-.2.32-.29.47-.06-.01-.11-.03-.17-.04-.04-.18-.08-.37-.13-.62.22.07.37.12.59.19ZM32.62,50.74c-.11.45-.19.76-.28,1.14-.63-.73-.63-.77.28-1.14ZM31.8,41.79c-.18-.35-.29-.56-.41-.8.74-.07.75-.05.41.8ZM32.57,41.42c-.07-.15-.14-.29-.21-.44.07-.04.13-.07.2-.11.09.14.19.28.28.42-.09.04-.18.09-.27.13ZM32.71,38.67s-.08-.01-.13-.02c.01-.15.02-.3.03-.45.07.01.14.02.22.03-.04.14-.08.29-.12.43ZM32.5,32.01c-.12-.11-.16-.13-.16-.14.07-.2.15-.4.23-.59.07.03.14.05.22.08-.09.21-.18.41-.28.65ZM31.94,39.28c-.1-.06-.21-.1-.29-.18-.05-.05-.04-.16-.06-.25.04-.02.09-.04.13-.06.11.12.21.24.32.36-.03.04-.06.08-.1.12ZM30.83,2.75c.38.31.36.49,0,.69v-.69ZM31.22,8.56c.2-.19.21-.44.07-.72-.05-.11.15-.34.24-.51l.23.11c.09.52.3,1.06-.24,1.51-.31.26-.61.31-.92-.04.23-.12.46-.2.62-.35ZM30.83,19.8c.06.06.13.11.19.17-.12.13-.24.26-.36.39-.05-.04-.1-.08-.15-.12.1-.15.21-.29.31-.44ZM31.03,25.45c-.18.07-.39.1-.52.23-.12.12-.15.34-.22.52-.07.02-.14.03-.21.05-.06-.17-.2-.38-.15-.5.2-.46.66-.36,1.1-.29ZM30.38,15.8c-.24.27-.37.4-.62.68.03-.49-.03-.78.62-.68ZM29.84,13.27c-.49-.06-.53-.36-.52-.88.51.23.72.44.52.88ZM29.9,10.2c0,.06,0,.12,0,.18-.17.03-.34.07-.59.12.15-.42.36-.37.59-.3ZM29.69,18.63c-.21.25-.34.4-.47.55-.18-.51-.02-.62.47-.55ZM28.98,19.6c.18.08.35.15.53.23-.02.06-.05.12-.07.18-.18-.06-.36-.12-.54-.19.03-.08.06-.15.08-.23ZM28.42,11.51c.44,1.08.36,1.37-.34,1.39.11-.44.22-.88.34-1.39ZM28.13,18.18c-.02.07-.04.13-.05.2-.21-.07-.42-.15-.76-.27.43-.24.63-.1.81.07ZM27.16,15.29s.08.05.12.08c-.08.3-.15.59-.23.89-.07.04-.13.08-.2.12-.09-.13-.18-.27-.28-.43.22-.24.4-.45.59-.65ZM26.58,27.15c-.06.04-.12.08-.17.12-.1-.18-.19-.35-.29-.53.05-.03.1-.06.15-.09.11.16.21.33.32.49ZM26.3,21.47c.06.09.13.18.16.28.01.04-.08.12-.16.22-.08-.13-.18-.21-.19-.3,0-.07.12-.13.19-.2ZM25.91,24.07c.05.14.09.28.14.43-.05.02-.11.04-.16.06-.05-.14-.1-.28-.15-.43.06-.02.11-.04.17-.06ZM25.07,11.3c-.73.1-1.01-.29-1.08-.93.36.31.72.62,1.08.93ZM23.98,14.29c.07,0,.13.01.2.02-.03.19-.05.38-.08.57-.04,0-.08,0-.12-.01v-.57ZM24.2,21.67c0,.06.01.11.02.17-.16.02-.31.03-.47.05,0-.05-.01-.1-.02-.16.16-.02.31-.04.47-.06ZM24.41,25.96c-.4.23-.74.42-1.07.61q.46-.78,1.07-.61ZM23.18,17.16c-.08-.14-.16-.29-.29-.51.17.03.3.02.38.08.07.05.07.18.11.28-.07.05-.13.1-.2.15ZM23.32,12.78c.05-.09.11-.2.21-.38.03.15.09.28.05.35-.17.33-.43.38-.67.11-.19-.21-.33-.47-.52-.74.57-.14.46.61.93.65ZM22.43,13.99c.43.43.18.76-.13,1.25-.27-.55-.2-.89.13-1.25ZM21.78,26.3c.05.08.08.14.12.21-.07.03-.15.11-.21.09-.06-.01-.1-.11-.15-.17.07-.04.14-.07.24-.13ZM20.95,11.54c.12.02.23.08.44.16-.15.14-.25.27-.29.25-.11-.05-.2-.15-.28-.25,0-.01.1-.17.14-.17ZM20.87,13.06c.07.14.16.27.19.41.03.13,0,.27,0,.41-.04,0-.09.02-.13.03-.07-.27-.15-.53-.22-.8.05-.02.1-.04.15-.05ZM20.78,23.47c.05.03.1.06.15.09-.09.14-.17.28-.26.42-.04-.02-.08-.04-.12-.07.07-.15.15-.3.22-.45ZM19.78,40.51s.06.09.09.13c-.13.09-.26.18-.38.27-.03-.05-.07-.1-.1-.15.13-.08.26-.17.39-.25ZM20.42,78.16c.29.42.48.7.67.98-.43-.12-.63-.39-.67-.98ZM21.87,71.38c.2.58-.34.62-.53.87.03.24.07.48.1.72-.04.03-.08.05-.13.08-.18-.19-.36-.39-.58-.62.4-.37.74-.68,1.14-1.05ZM21.83,70.56s.06-.07.09-.11c.1.07.21.11.29.2.06.07.06.18.09.27-.04.02-.07.04-.11.06-.12-.14-.24-.27-.35-.41ZM21.91,76.87s0,0,0-.01c0,0,.01,0,.01,0,0,0-.01,0-.02,0,0,0,0,0,0,0-.24-.19-.49-.37-.73-.56.8.01.87.09.73.56,0,0,.01,0,.02.01h0s0,0,0,0c0,0-.01,0-.02,0-.11.24-.22.48-.38.84-.14-.67-.14-.68.38-.84ZM21.57,78.18c0-.06,0-.12-.01-.18.26-.03.52-.05.78-.08,0,.09.01.17.02.26h-.78ZM22.56,72.5c-.08-.03-.16-.06-.24-.1.09-.21.17-.42.26-.62.06.02.12.04.19.06-.07.22-.14.44-.21.66ZM23.91,83.45c-.24-.28-.16-.51.04-.75q.26.4-.04.75ZM24.37,65.83c-.17-.24-.27-.37-.39-.53q.53-.03.39.53ZM24.68,84.89c.41-.13.68-.21.97-.31-.08.74-.22.8-.97.31ZM24.47,71.15q.52-.33,1.17-.09c-.3.26-.58.51-.91.81-.1-.27-.18-.5-.26-.72ZM26.04,84.97c.02-.61.33-.97.93-1.15-.19,1.17-.28,1.29-.93,1.15ZM26.35,75.62c.05-.17.1-.34.14-.52.04,0,.09,0,.13,0,.02.11.06.23.04.33-.02.1-.11.18-.17.27-.05-.03-.1-.05-.15-.08ZM27.05,79.02q-.51-.13,0-.82v.82ZM27.83,74.3c.16-.06.32-.12.47-.18.02.05.04.09.06.14-.15.07-.31.14-.46.21-.02-.06-.04-.11-.07-.17ZM29.19,77.64c-.43-.23-.84-.45-1.29-.69.25-.11.51-.22.84-.36,0,.37.63.51.45,1.05ZM29.18,62.75h-.03c-.1-.07-.2-.14-.31-.21,0,.09.01.15.02.21h-2.21s-.02-.04-.02-.06c-.26-.02-.54.13-.66-.23-.01-.04-.23-.02-.37-.03.02.14.04.25.06.33h-.92s.03-.06.04-.1c-.22-.04-.37,0-.48.1h-2.2c-.15.25-.22.45-.35.54-.14.1-.36.13-.53.12-.08,0-.23-.23-.2-.31.05-.14.19-.32.32-.35.05-.01.11-.02.17-.03-.77-.09-1.35-.5-1.37-1.67.03.06.07.11.11.17.05,0,.1-.01.14-.02-.17-.28.36-.47.25-.55-.16.06-.32.12-.5.18v-2.13c.06-.22.06-.37,0-.48v-1.95s.04.05.07.07c.03-.03.07-.06.1-.09-.07-.15-.12-.25-.16-.32v-1.46c.27.09.42.03.47-.31-.22-.01-.38,0-.47.16v-1.33s.04-.01.05-.02c-.26-.33-.47-.6-.76-.97.67.35.7.37.81.96.05,0,.1.03.16.11.07.1.32-.21.52,0,.04.05.24.04.28-.01.05-.07.05-.22,0-.3-.06-.11-.19-.17-.29-.26-.13.09-.24.16-.35.23-.14-.09-.28-.17-.43-.26v-1.65s.02.02.03.04c.16-.41.3-.78.49-1.26-.23.11-.38.17-.51.25v-7.1c.18.01.33,0,.49-.07-.17-.19-.32-.23-.49-.16v-1.32c.09-.09.09-.22,0-.4v-.03c.13-.03.24-.05.41-.08-.15-.1-.27-.19-.41-.28v-10.39c.12.08.24.16.38.26-.14.27-.25.47-.35.66.19.06.35.11.5.16.1-.26.19-.49.28-.72-.48-.33-.48-.33-.12-.73.05-.06.07-.15.16-.34-.18.1-.25.12-.3.17-.25.21-.4.28-.54.22v-.38c0-.99.79-1.82,1.77-1.82h.44s0,0,.01,0c.04-.11.17-.15.44-.09-.02.03-.05.06-.07.09h.63c.06.11.1.24.12.4.13-.14.2-.27.22-.4h3.52s.05-.09.08-.14c.04.06.07.1.1.14h1.7c.08,0,.15,0,.22.02-.09-.28-.16-.47-.22-.66.05-.02.11-.04.16-.06.14.17.28.34.46.56-.05.06-.1.12-.18.22.47.17.79.62.79,1.15v.11s.08.07.07.1c0,.08-.03.15-.07.2v1.41c0,.69-.54,1.23-1.23,1.23h-.1s.08-.08.12-.11c-.16-.29-.31-.55-.46-.82-.39.28-.54.6-.43.93h-1c.08-.2.16-.41.27-.69-.46.3-.52.44-.33.69h-1.38c-.1.14-.19.28-.28.41-.07-.17-.12-.3-.16-.41-.67.03-1.19.6-1.19,1.28v4.38c0,.6.42,1.13,1.02,1.25.03-.04.06-.09.11-.14.01.05.02.1.04.15.04,0,.08.01.12.01h.54c-.06-.08-.11-.2-.15-.36.31.09.54.16.87.26-.05.04-.09.07-.14.11h1.34c.08,0,.16.01.24.03.17.04.34.08.52.12-.02.05-.03.09-.05.14.2.2.33.48.33.79v2.12c0,.59-.44,1.03-1.03,1.03h-1.03l-1.43.05c-.74,0-1.28.54-1.28,1.28v2.43s-.03.04-.05.06c.08.03.15.05.23.08-.06.17-.12.33-.18.5,0,0,0,0,0,0v4.64c.24.15.26.35.17.72-.06-.11-.12-.21-.17-.3v1.85c-.04.08-.03.17,0,.26v2.77c0,.8,0,1.1.35,1.21,0,.02,0,.04,0,.06.03,0,.07.01.1.02,0-.01.01-.03.02-.04.18.03.42.04.76.04h3.79c.59,0,1.03.49,1.03,1.08v1.97c0,.59-.2,1.08-1.03,1.08ZM30.29,71.63c.06.05.11.11.17.16-.15.15-.3.3-.44.45-.05-.05-.11-.1-.16-.15.14-.15.29-.31.43-.46ZM29.82,63.91c-.01-.07-.02-.15-.03-.22.2-.03.41-.07.61-.1,0,.09.02.18.02.27-.2.02-.4.04-.6.05ZM29.51,58.47c-.21-.43-.03-.71.33-.91.25-.14.49-.16.59.22-.29.22-.59.44-.92.69ZM29.54,51.62s-.06.06-.09.09c-.22-.21-.44-.42-.66-.64.04-.05.08-.09.11-.14.21.23.43.45.64.68ZM28.9,44.85c.13-.36.34-.45.73-.37-.18.32-.29.6-.73.37ZM29.86,49.06s-.09-.02-.13-.03c0-.11-.03-.24.01-.33.04-.08.17-.13.25-.19.05.04.1.08.14.12-.09.14-.18.29-.28.43ZM27.72,45.92c0-.46.2-.73.74-.67-.25.22-.5.45-.74.67ZM28.28,56.82c.01.13-.1.27-.16.41-.14-.1-.4-.2-.41-.31-.02-.22.11-.45.17-.67.06,0,.12.02.19.03.08.18.19.36.21.55ZM27.46,50.13c-.5.51-1.01.86-1.73.87.2-.51.91-.87,1.73-.87ZM26.2,43.49v.93c-.39-.37-.26-.58,0-.93ZM24.91,44.4c.05-.06.1-.11.16-.17.11.12.23.24.34.36-.04.04-.08.09-.12.13-.12-.11-.25-.22-.37-.32ZM25.11,50.79c-.1.11-.21.22-.31.33-.04-.04-.09-.08-.13-.13.1-.11.21-.22.31-.33.05.04.09.09.14.13ZM24.44,44.33l-.12.52c-.05-.01-.11-.03-.16-.04.05-.17.09-.35.14-.52.05.01.1.02.15.04ZM29.51,79.23v-1.16c.29-.06.64-.13,1.14-.23-.39.47-.7.85-1.14,1.39ZM29.85,43.45c.65.1,1.02-.17,1.2-.8.24.15.35.22.46.29-.03.1-.03.18-.07.2-.26.17-.55.31-.78.51-.31.26-.51.17-.81-.2ZM31.14,45.61c.06.02.13.04.19.06-.05.2-.1.4-.16.6-.08-.02-.15-.05-.23-.07.07-.2.13-.39.2-.59ZM31.2,84.91c-.07-.16-.15-.31-.22-.47.07-.03.13-.06.2-.08.05.17.1.33.15.5-.04.02-.08.03-.12.05ZM31.06,59.11c-.03-.06-.06-.12-.09-.18.2-.09.4-.19.59-.28.03.06.06.12.09.18-.2.09-.4.19-.59.29ZM32.48,52.96c-.6.37-.68.34-.71-.3.24.1.46.2.71.3ZM32.01,71.98c-.07-.18-.15-.36-.22-.55.09-.04.19-.08.28-.12.07.17.15.35.2.53,0,.02-.17.09-.25.14ZM32.39,67c-.09-.17-.18-.27-.17-.35.01-.07.14-.12.22-.19.06.08.16.16.16.25,0,.07-.1.15-.21.29ZM32.45,59.4c-.02-.05-.04-.11-.06-.16.15-.07.31-.15.46-.22.04.08.08.16.12.24-.17.05-.34.1-.52.15ZM32.85,56.94c-.15-.06-.31-.12-.49-.2.07-.28.13-.54.19-.81.05-.01.11-.02.16-.03.1.3.2.6.3.9-.05.04-.1.09-.15.13ZM32.79,26.39q-.47-.65.33-.81c-.13.32-.23.56-.33.81ZM32.57,22.43c.37.05.55.07.76.1-.05.3-.09.56-.17.97-.22-.39-.37-.66-.6-1.07ZM34.4,79.07c-.37-.05-.74.4-1.21-.06.54-.12.81-.76,1.43-.29.04-.24.06-.43.11-.72.29.31.53.55.81.85-.34.35-.77.27-1.14.22ZM36.36,78.68c-.31-.39-.5-.62-.72-.89q.79-.15.72.89ZM36.32,62.03c.12.27.2.45.29.65q-.46-.1-.29-.65ZM36.77,73.71c.28-.26.49-.45.71-.65.05.05.11.1.16.16-.15.3-.28.63-.87.5ZM37.62,66.11c-.06.05-.18.03-.27.05-.02-.06-.03-.13-.05-.19.13-.08.26-.15.39-.23.03.03.07.05.1.08-.06.1-.09.23-.17.3ZM37.62,48.05c-.05-.03-.11-.06-.16-.09.08-.15.17-.31.25-.46.04.02.08.03.11.05-.07.17-.13.33-.2.5ZM38.49,47.08c-.09-.07-.15-.13-.2-.18.05-.05.11-.15.16-.15.06,0,.15.07.18.13.01.03-.08.11-.14.19ZM38.75,39.12c-.14-.06-.28-.14-.42-.22.06-.08.13-.16.19-.24.11.11.22.23.33.35,0,0-.08.12-.1.11ZM38.74,6.85v-.71c.37.18.39.36,0,.71ZM40.11,81.64c-.14-.35-.25-.62-.36-.88.06.26.92.22.36.88ZM39.94,74.75c-.05-.16-.09-.32-.14-.48-.27-.05-.54-.1-.81-.15.49-.3.94-.58,1.41-.87.22.13.49.29.8.48-.29.44-1.16.26-1.26,1.03ZM39.59,70.17c.07-.14.18-.27.3-.38.02-.02.25.11.24.17-.01.15-.07.32-.16.45-.05.07-.21.08-.36.13-.01-.15-.07-.28-.03-.37ZM40.6,67.34c.07-.02.15-.03.22-.05.09.32.17.65.26.97-.06.02-.12.04-.18.05-.1-.33-.2-.65-.3-.98ZM41.16,62.97c.07-.01.14-.03.2-.04.01.14.02.28.04.42-.05,0-.1.01-.15.02-.03-.13-.06-.27-.08-.4ZM42.18,84.94c-.46-.01-.84-.1-.86-.7.26-.07.53-.15.86-.25v.94ZM41.88,83.58c-.09.08-.38-.05-.68-.1.29-.5.49-.74,1.04-.62-.13.28-.19.56-.36.73ZM41.73,70.76c.31-.1.55-.21.8-.26.28-.06.55.29.38.49-.17.21-.44.4-.69.46-.11.03-.32-.25-.47-.41-.04-.05-.02-.16-.03-.29ZM42.14,67.87c.38.25.7.46,1.11.72-.97.12-1.09.05-1.11-.72ZM43.23,73.38c-.01.2-.03.4-.04.6-.08,0-.16-.02-.24-.03.03-.2.06-.4.09-.6.06,0,.13.01.19.02ZM42.47,80.75c.27-.32.51-.37.83-.08-.27.38-.52.3-.83.08ZM43.85,83.09c-.71-.34.02-.89-.31-1.38h.76c-.16.49-.3.92-.44,1.38ZM43.59,80.72c.09-.14.18-.28.26-.42.05.03.1.05.15.08-.06.16-.13.32-.19.48-.08-.04-.15-.09-.23-.13ZM44.32,71.85c-.31-.47-.58-.86-.85-1.26.04-.03.07-.06.11-.09.29.15.57.29.95.48-.07.26-.14.54-.22.86ZM44.4,64.91c.21-.09.38-.17.67-.29-.09.28-.15.46-.25.78-.17-.21-.28-.33-.41-.5ZM44.93,81.7c-.07-.11-.18-.2-.2-.32-.02-.07.09-.16.18-.31.13.16.27.26.27.36,0,.1-.15.19-.24.28ZM44.86,77.15q.5-.14.75.26c-.21-.07-.43-.15-.75-.26ZM45.85,70.88c.16-.09.44.01.71.04-.33.29-.56.5-.82.74-.29-.36-.13-.64.11-.78ZM45.64,67.63c.17-.07.34-.2.42-.16.31.17.45.42.23.84-.21-.22-.4-.42-.64-.68ZM46.5,72.07c-.34-.36-.13-.51.29-.66-.03.26-.06.47-.08.67-.11,0-.19.02-.21,0ZM46.62,69.58c.07-.25.13-.49.23-.86.43.46.27.7.02.92-.08-.02-.16-.04-.25-.05ZM46.88,90.28s-.12-.08-.18-.13c.08-.07.15-.15.23-.19.04-.02.12.06.26.14-.14.09-.23.17-.32.18ZM48.33,74.28c-.07-.2-.14-.39-.2-.59.06-.02.13-.04.19-.07.07.2.14.39.21.59-.07.02-.13.05-.2.07ZM48.42,61.75c-.05.19-.1.37-.14.55-.04,0-.08,0-.12,0-.01-.08-.03-.16-.04-.24-.24.22-.5.41-.79.57-.11-.17-.23-.34-.34-.52-.17.28-.19.31.26.57-.5.25-1.09.41-1.77.46-.06.08-.12.16-.18.24-.04-.02-.08-.04-.12-.05.01-.05.01-.11.02-.17-.63,0-3.85-.16-5.34-2.97.15.15.27.17.37.09-.03-.15-.05-.29-.08-.47-.12.04-.25.07-.41.12-.3-.63-.51-1.4-.59-2.3.12-.22.07-.37-.03-.49,0-.13-.01-.26-.01-.39v-21.33s-.17-4.57,2.67-6.88c-.05.08-.07.2-.02.35.06.21.22.39.39.68.33-.36.6-.57.66-.94-.2-.07-.38-.13-.56-.19-.12-.04-.23-.04-.32,0,.44-.33.94-.61,1.53-.82.01.09.03.17.04.26.05,0,.1-.02.15-.02-.02-.09-.03-.19-.05-.28.32-.1.67-.18,1.04-.24-.07-.32-.13-.64-.21-.99-.26-.16-.43.82-.83.07.64-.14,1.04-.94,1.86-.55-.09.37-.44.68-.18,1.15.05.08.05.17.01.25.09,0,.18-.01.28-.02.84,0,1.56.07,2.19.2-.04-.15-.01-.31.13-.53.35.15.45.38.47.69,3.65,1.09,3.34,4.46,3.32,6.57-.13.07-.26.13-.39.2.09.13.17.25.25.36-.1.14-.26.24-.43.29,0,0,.01-.01.02-.02-.06.02-.13.03-.19.05-.02,0-.04,0-.05,0h-2.12c-.19,0-.36-.08-.49-.19,0,0,0,0,0,0,0,0,0,0,0,0-.17-.15-.27-.37-.25-.6,0-1.18.09-2.1-.62-2.55.03-.14.06-.28.08-.43-.04,0-.08-.02-.12-.02-.07.12-.14.25-.06.4-.24-.13-.56-.21-.99-.23.22-.09.43-.18.67-.28-.11-.26-.18-.44-.3-.72-.1.31-.16.51-.22.71-.11-.02-.21-.04-.31-.06v.36c-.06,0-.11,0-.17,0,0,0-2.62-.29-2.96,3.05-.1-.2-.3-.29-.67-.36-.06.17-.05.31.18.31.27,0,.37.16.42.39,0,.04.02.08.04.13,0,.09,0,.19,0,.29v1.61c-.13-.05-.26-.09-.41-.14.06.28.2.41.41.41v10.93c-.02-.17-.11-.34-.13-.52-.24.1-.26.24-.2.4.11.27,0,.44-.25.56-.08.04-.14.12-.19.16.12.5.31-.09.46.11.07.25.14.53.24.9.02-.06.04-.11.06-.17v5.43c0,.31.01.59.04.86-.06,0-.13,0-.2,0,.07.06.15.12.22.18.18,1.73.83,2.49,1.41,2.81-.31-.9-.53-2.09-.47-2.53.06,0,.12-.02.18-.03.18.89.36,1.79.54,2.68.44.17.8.11.8.11,2.62,0,2.75-3.51,2.76-5.42.16.01.3.02.45.04-.15-.31-.18-.37-.45-.21,0-.04,0-.08,0-.12v-1.05c.13.04.29.11.45.15-.01-.22-.02-.37-.03-.61-.17.13-.26.21-.42.33v-1.22c.13-.14.24-.26.36-.39-.08-.11-.15-.2-.22-.3-.05.03-.09.05-.14.08v-3.73s.04-.05.06-.07h-.06v-.88s.09.1.13.14c.25-.15.5-.3.75-.45-.34.08-.53-.15-.73-.39-.05.04-.1.08-.15.12v-.44c0-.23-.05-.45-.15-.66.02,0,.04.01.06.02-.3-.42-.54-.74-.76-1.06-.13.04-.22.07-.3.1.14.03.24.09.31.18-.1-.06-.2-.1-.31-.14,0-.01,0-.02-.01-.04,0,0,0,.02-.01.03-.14-.04-.29-.07-.45-.07h-.89c-.49,0-.94-.39-.94-.94v-.04c.05.06.11.12.2.19.02-.29.04-.54.07-.87-.12.11-.21.2-.27.28v-1.97c0-.54.39-.99.94-.99l4.09-.05c.77,0,1.43.44,1.76,1.09.28-.09.54-.17.78-.24.04.06.08.11.12.17-.24.14-.47.3-.72.41-.01,0-.05-.04-.09-.1.07.2.11.42.11.65v.4c.06,0,.13.03.2.03,0,.03,0,.07.01.1l-.21.07v5.53c-.27.08-.35.29-.3.55.04.18.14.29.3.33v3.27c.05.17.09.35.14.54-.04.02-.09.04-.14.07v4.45s0,0,0-.01c.12.29.15.37,0,.43v.53s.07.1.11.15c-.03.02-.07.04-.11.07v5.12c0,.3-.3.59-.59.59h-2.07c-.35,0-.59-.3-.59-.59v-.54s-.08.09-.12.13ZM41.88,29.02c.17-.3.31-.24.47-.12-.12.03-.24.06-.47.12ZM50.8,36.75c-.28.14-.52.26-.81.4q.32-.64.81-.4ZM46.83,34.04c-.24.31-.4.51-.6.76-.15-.41-.25-.72-.41-1.16.38.15.63.25,1.01.39ZM46.19,32.04c.08-.07.15-.18.24-.21.07-.02.17.06.34.14-.18.14-.26.24-.37.27-.05.01-.14-.13-.21-.2ZM44.34,54.06c.11-.42.17-.67.74-.62-.3.25-.46.38-.74.62ZM45.1,57.29c-.5-.15-.49-.5-.54-.84.34.14.61.35.54.84ZM43.8,39.09c-.11.06-.22.11-.32.17-.14-.29-.28-.58-.48-.98.9.03.12.81.8.82ZM42.97,48.12v.4c-.07-.01-.14-.03-.22-.05.15-.13.21-.24.22-.35ZM45.72,57.79c.01.2.02.36.04.58q-.29-.25-.04-.58ZM47.45,57.76c-.55.11-.9.19-1.32.27-.02-.22-.03-.44-.06-.72.44.14.8.26,1.38.45ZM46.2,49.72s0-.08,0-.12c.09-.02.18-.06.26-.05.09.01.18.07.27.11-.02.07-.04.14-.06.21-.16-.05-.31-.1-.47-.14ZM47.34,48.1q.5.53-.22,1c.08-.37.15-.65.22-1ZM47.12,44.19c.19.24.29.32.3.42.01.07-.09.16-.23.39-.03-.31-.04-.45-.08-.8ZM51.85,71.62c-.43.33-.63.25-.79,0,.02-.08.05-.16.07-.23.2.07.39.13.72.24ZM50.54,77.29v-.67c.37.22.32.4,0,.67ZM49.45,76.24c-.25.26-.47.17-.77.09.27-.35.48-.31.77-.09ZM48.7,83.59c.56-.14-.02-.82.67-.99.1.52.19.97.3,1.58-.38-.23-.63-.38-.97-.59ZM49.64,88.93c.2-.09.39-.19.7-.34-.2.33-.33.56-.7.34ZM49.99,82.8q.82.04.52.87c-.22-.37-.36-.59-.52-.87ZM50.66,87.16q.57-.24,1.08.19c-.31-.05-.63-.11-1.08-.19ZM51.72,84.67c.06-.41.09-.63.12-.85.28.27.29.5-.12.85ZM51.76,82.85c-.18-.44-.34-.84-.49-1.23.04-.03.08-.05.12-.08.22.27.45.54.71.86-.1.13-.21.28-.34.45ZM52.15,73.99c-.47-.03-.35.96-1.01.62.1-.26.19-.5.3-.78h.71v.17ZM52.08,48.84c0-.06.08-.17.12-.17.1,0,.19.06.29.1-.04.09-.08.17-.11.26-.07.05-.15.09-.22.14-.03-.11-.07-.22-.07-.33ZM52.19,49.81c.14.03.28.06.42.09,0,.04-.01.08-.02.12-.14-.02-.29-.03-.43-.05,0-.05.02-.11.02-.16ZM52.62,74.09v-.46c.05,0,.11-.01.16-.02.01.15.03.3.04.46-.07,0-.13.01-.2.02ZM52.97,63.21c-.14-.1-.27-.2-.41-.31.03-.04.05-.08.08-.11.14.1.28.19.42.29-.03.04-.06.09-.09.13ZM53.59,81.87c-.15-.13-.31-.26-.52-.44.44-.13.63-.04.69.25-.06.06-.12.13-.18.19ZM53.86,79c-.22-.53.23-.62.53-.77.11-.05.31.07.54.14-.47.28-.77.45-1.07.63ZM54.8,62.12c-.32-.18-.64-.35-1.01-.55.35-.1.63-.18.97-.27.11.23.41.45.05.82ZM55.05,84.29c0-.07-.01-.14-.02-.22.19-.01.38-.03.61-.04-.12.57-.39.26-.58.26ZM55.45,77.67c-.08-.16-.19-.36-.31-.58.43-.37,1.1-.13.98-.98.07.04.15.08.22.13.11.19.22.39.29.51-.43.33-.78.6-1.19.93ZM56.58,55.54c.36.18.73.36,1.09.54-.03.07-.05.14-.08.22-.53.1-.87-.15-1.01-.76ZM57.16,78.91c-.21-.41-.03-.55.15-.69.07.04.14.07.21.11-.1.17-.21.33-.36.58ZM57.02,63.43c.19-.42.37-.54.7-.26-.19.07-.37.14-.7.26ZM58,76.06c-.1-.02-.2-.16-.24-.27-.02-.05.13-.21.21-.21.1,0,.2.11.37.21-.16.13-.27.28-.34.27ZM58.63,45.37c.38.55.18.75-.22.9.06-.24.12-.48.22-.9ZM58.75,47.96c.03.16.06.33.09.49,0,0-.14.04-.14.04-.06-.16-.11-.33-.16-.49.07-.01.14-.03.22-.04ZM58.56,48.66c.31.23.5.38.75.57-.41.36-.34.7-.13,1.1.18.36.23.79.27,1.21-.81-.77-.72-1.78-.89-2.88ZM59.79,62.05c-.36.29-.59.47-.81.65-.01-.46.14-.73.81-.65ZM60.49,71.81c-.29-.15-.53-.28-.76-.4.11-.23.24-.49.4-.82.14.44.78.64.36,1.21ZM61.71,86.43c-.14.31-.43.35-.96.22.19-.2.32-.39.49-.52.11-.09.28-.11.42-.16.02.16.1.34.05.46ZM60.95,70.34c.43.12.6.38.59.71-.04.72-.11,1.43-.19,2.35-.4-1.13-.21-2.11-.4-3.07ZM62.99,73.55c.32.44.54.75.78,1.08-.75-.12-.78-.16-.78-1.08ZM62.28,69.28c.49-.05.87-.08,1.28-.13-.15.41-.27.74-.4,1.12-.29-.33-.53-.6-.88-.99ZM64.58,83.13c-.05-.04-.11-.09-.16-.13.12-.17.24-.34.4-.57.07.15.15.25.13.28-.11.15-.24.29-.37.43ZM64.89,69.06c-.06-.02-.12-.04-.18-.05l.19-.48s.1.03.14.05c-.05.16-.1.32-.16.48ZM64.84,67.22c-.12-.31-.23-.62-.39-1.02.73.23.78.4.39,1.02ZM62.34,62.75c-.94,0-1.13-.3-1.13-1.13v-1.95h.34c.19-.83.19-.84-.29-1.14.13.31.33.6,0,.83-.02,0-.03,0-.05-.01v-1.56c.04-.19.09-.38.14-.6-.05.02-.1.05-.14.08v-2.24c.25.02.43.03.6.04.02-.05.03-.11.05-.16-.08-.09-.17-.19-.26-.29-.12.09-.23.17-.39.29v-5.25s.05-.01.08-.02c-.03-.03-.05-.05-.08-.08v-1.58c-.31,0-.37.25-.31.75-.29-.43-.43-.64-.57-.84.08-.16.16-.31.28-.54.15.15.26.24.43.41.06-.08.11-.16.17-.25v-9.08c.23-.07.29-.27.24-.57-.08.09-.16.18-.24.27v-3.77c.19.05.39.1.63.17-.09-.17-.12-.3-.2-.34-.14-.08-.29-.12-.43-.12v-5.36c0-.39-.02-.67.08-.85-.03-.03-.07-.07-.1-.1.04-.04.08-.09.12-.13.04.03.08.06.12.09.16-.1.44-.15.91-.15h1.82c.13,0,.24,0,.34,0,.07-.02.14-.04.21-.06.11-.23.21-.46.31-.69.42-.03.77-.03,1.06.38-.29.03-.5.01-.7.07-.22.06-.41.19-.62.29,0,0-.02.02-.03.02.52.09.55.37.55,1.1v.4c-.17.13-.32.26-.47.38.17.23.32.43.47.63v2.77s-.01,0-.02-.01c-.04.21-.06.33-.09.49.04,0,.08.01.12.02v1.34s-.05-.07-.07-.11c-.1.02-.27.02-.29.07-.11.24-.18.49-.27.75.15.19.31.21.52.03-.22-.27-.24-.51.12-.69v5.36c-.07,0-.14,0-.2.01.07.08.14.14.2.15v6.54c-.29-.53-.79-.54-1.38-.56.46.21.09.43.11.69.51-.26.9-.12,1.27.09v4.72c-.11-.05-.25.02-.56.19.16.31.34.19.56.14v1.85c.12-.01.26,0,.43.06-.16.11-.29.19-.43.28v.34c.01.23.02.46.03.69-.01,0-.02,0-.03,0v2.31c0,.6.47,1.1,1.05,1.17.14.15.27.29.4.43.23-.47.58-.05.93-.1,0-.11.01-.21.02-.32h.46c.04.08.07.15.1.21.45-.05.85-.09,1.3-.14-.02-.02-.05-.04-.07-.07h.49c.82,0,1.07-.11,1.12.73-.02.05-.03.12-.02.2.01,0,.02,0,.03-.01,0,.07,0,.14,0,.21v1.68c0,.89.05,1.13-1.13,1.13h-7.64ZM71.11,66.15v.42c-.07,0-.14,0-.21-.01.03-.14.05-.28.08-.42.04,0,.09,0,.13.01ZM66.53,73.64c-.13-.18-.22-.31-.32-.44.07-.04.15-.12.21-.11.28.05.3.22.1.55ZM65.55,80.78c.02-.05.06-.22.11-.38h.72c.13.25.28.52.44.81-.41-.14-.8-.27-1.27-.44ZM68.94,65.89c.07,0,.19.16.18.23-.01.31-.21.44-.54.41-.04-.08-.07-.11-.06-.13.05-.25.09-.52.43-.51ZM68.55,68.3c.29-.42.54-.2.78-.18,0,.06.02.12.03.18h-.8ZM69.97,79.67c.05.42.09.78.13,1.19-.61-.5-.63-.63-.13-1.19ZM69.69,77.77c.4.4.23.65,0,.99-.29-.36-.31-.63,0-.99ZM70.13,73.88c-.16-.04-.31-.08-.47-.12.01-.05.02-.1.04-.14.16.04.31.07.47.11-.01.05-.03.1-.04.16ZM70.07,66.64c-.14-.15-.29-.3-.43-.44.04-.04.08-.08.12-.11.15.14.3.28.46.42-.05.05-.1.09-.14.14ZM70.63,78.59c.18-.17.35-.33.56-.53q.08.68-.56.53ZM72.12,81.91c-.02-.15-.07-.25-.04-.3.15-.21.35-.29.73-.03-.28.13-.47.22-.69.33ZM73,79.94c-.12-.11-.24-.22-.36-.33.03-.05.07-.1.1-.15.11.02.25,0,.33.07.07.05.07.19.1.29-.06.04-.11.08-.17.13ZM73.37,68.35c.17-.28.36-.3.63-.14-.12.35-.32.37-.63.14ZM73.68,60.73c.32-.46.66-.32,1.07-.31-.28.46-.59.49-1.07.31ZM74.51,64.82c.29-.58.35-.59.95-.05-.37.02-.66.04-.95.05ZM74.9,39.87s.03-.05.05-.08c.18.1.36.21.55.29.18.07.38.11.68.19-.15.25-.26.45-.38.66-.31-.37-.6-.72-.89-1.06ZM76.45,72.18c-.13-.22-.24-.4-.41-.69.62.05.66.27.41.69ZM76.06,65.74s.04-.03.1-.08c.12.07.26.16.39.24-.02.04-.03.08-.05.12-.15-.07-.29-.13-.44-.2-.01,0-.02-.06,0-.08ZM75.86,60.92c-.04-.25-.07-.44-.09-.63.3-.14.56-.26.83-.38.02.03.04.06.06.08-.25.29-.5.58-.79.92ZM76.94,50.98c-.52-.14-.86.05-.99.64-.29-.41-.25-.74.07-.9.44-.22.41-.57.36-.98.42,0,.6.26.8.48-.07.23-.13.44-.23.77ZM76.93,48.31c-.18-.34-.33-.6-.49-.9.55,0,.95.2,1.37.79-.43.06-.69.09-.88.12ZM77.98,42.27c-.05,0-.1,0-.16,0v-.44c.06,0,.12,0,.18,0,0,.15-.02.3-.02.44ZM78.49,71.53s0,.02,0,.03c-.02.01-.03.02-.05.04-.09.3-.19.61-.29.94-.22-.52-.22-.55.29-.94,0-.02.01-.05.02-.07,0,0,0,0,0,0,.01,0,.02,0,.03,0-.01-.38.27-.46.61-.58-.03.46-.2.66-.61.58ZM78.94,69c-.04-.17-.09-.35-.13-.52.08,0,.17,0,.25,0,.01.17.03.33.04.5-.06.01-.11.02-.17.03ZM79.28,65.38c-.11.11-.37.07-.74.11.34-.31.52-.47.85-.77-.04.29,0,.55-.11.66ZM79.73,64.03c.08,0,.16.11.27.2-.12.07-.2.15-.25.13-.09-.03-.17-.11-.25-.17.08-.06.15-.16.22-.16ZM79.61,67.18c-.19-.46.06-.67.41-.95.12.48.05.77-.41.95ZM80.37,69.65c-.14-.3-.25-.54-.39-.82.39-.14.7-.25,1.01-.36.03.04.07.08.1.12-.22.32-.44.64-.72,1.06ZM81.13,67.75c-.3-.21-.18-.4.05-.65.31.28.25.47-.05.65ZM81.94,45.76c-.13.36-.25.72-.38,1.08q-.31-.47.38-1.08ZM81.89,62.27c-.39-.25-.36-.66-.2-1.1.2.32.41.64.67,1.04-.2.03-.38.12-.47.06ZM82.08,65.43c.49.16.81.27,1.32.44q-.72.15-1.32-.44ZM83.45,65.31c-.38-.12-.69-.22-1.05-.34.21-.57.66-.63,1.23-.62-.06.34-.12.63-.18.95ZM83.43,47.81c-.05-.02-.1-.05-.15-.07.1-.19.19-.38.29-.57.05.04.1.08.16.11-.1.18-.2.36-.29.53ZM83.18,31.99c0-.36.46-.68.87-.52-.27.16-.54.33-.87.52ZM84.09,37.61c.2-.03.41-.06.68-.09v.86c-.7.05-.7.04-.68-.76ZM85.39,39.17q-.11.46-.69.66c.28-.27.45-.42.69-.66ZM84.96,62.99c-.01-.06-.03-.11-.04-.17.16-.03.33-.06.49-.09.01.05.02.09.03.14-.16.04-.32.08-.48.12ZM85.22,60.6c-.12-.33-.1-.56.2-.78.23.34.14.55-.2.78ZM85.85,54.27c.2.07.41.13.61.2-.02.06-.03.11-.05.17-.22-.06-.45-.12-.67-.18.03-.06.07-.12.1-.19ZM86.04,62.41c-.08-.29-.16-.57-.23-.86.08-.02.15-.04.23-.06.07.29.14.58.21.87-.07.02-.13.03-.2.05ZM85.97,57.49c-.03-.52.27-.85.79-1-.26.33-.53.67-.79,1ZM86.73,59.41c-.05-.02-.11-.03-.16-.05.05-.21.11-.41.16-.62.07.03.13.05.2.08-.07.19-.13.39-.19.58ZM87.17,37.37q.3-.55.93-.15c-.28.05-.56.09-.93.15ZM88.07,35.98c-.29-.33-.58-.66-.87-1,.05-.05.1-.09.15-.14.49.13.65.59.86,1-.05.04-.09.09-.14.13ZM88.63,43.97c.04.16.08.32.12.48-.05.01-.1.03-.15.04-.05-.15-.09-.31-.14-.46.06-.02.11-.04.17-.06ZM88.8,57.34c.02.16.03.32.05.48l-.24.02c-.01-.15-.03-.3-.02-.45,0-.02.14-.03.21-.05ZM88.74,59.17c-.09,0-.18-.16-.26-.25.11-.07.21-.18.33-.2.07-.01.16.11.31.21-.16.11-.27.25-.38.24ZM89.12,52.85c-.16-.13-.33-.26-.49-.39.06-.07.11-.14.17-.21.15.14.31.29.46.43-.05.06-.09.11-.14.17ZM88.93,51.19c.38-.03.59.09.59.64-.27-.3-.43-.47-.59-.64ZM89.03,47.3s.09-.11.17-.2c.12.1.21.19.31.27-.07.06-.18.2-.22.18-.1-.05-.19-.15-.26-.25ZM89.53,40.81c-.12-.08-.24-.17-.35-.25.04-.06.08-.11.12-.17.12.08.24.16.35.25,0,0-.07.12-.11.18ZM90.08,54.55c-.06.06-.11.12-.16.17-.05-.08-.12-.15-.14-.24,0-.03.11-.09.17-.14.04.06.08.12.14.2ZM89.74,42.18c.21-.11.39-.2.68-.34q-.12.76-.68.34Z"/>
        <path class="cls-1" d="M21.97,37.91c-.03-.15-.05-.29-.09-.48.17-.05.29-.09.4-.13-.42-.08-.77.03-1.07.33.27.1.51.18.76.28Z"/>
        <path class="cls-1" d="M21.58,54.62c.3.23.54.42.8.62.1-.55-.06-.69-.8-.62Z"/>
        <path class="cls-1" d="M22.48,52.28c-.05,0-.09-.12-.15-.13-.12-.03-.25-.04-.51-.07.01,0,.02.02.03.03,0,0,0,0,.01,0,0,0,0,0,0,0,.31.26.52.43.73.6.03-.03.07-.05.08-.08.17-.32.17-.31-.19-.35Z"/>
        <path class="cls-1" d="M23.34,53.09c.02.12.05.21.07.31.08,0,.17,0,.26-.01-.04-.1-.15-.2-.32-.3Z"/>
        <path class="cls-1" d="M23.53,45.72c-.06-.04-.19.03-.34.06.13.21.22.36.39.62.04-.32.17-.52-.06-.68Z"/>
        <path class="cls-1" d="M21.5,50.98c.16-.03.32-.06.51-.09-.07-.12-.1-.19-.19-.36-.14.13-.26.24-.37.35.02.03.03.07.05.1Z"/>
        <path class="cls-1" d="M21.49,42.91c.16-.06.31-.12.54-.2-.45-.24-.51-.21-.54.2Z"/>
        <path class="cls-1" d="M23.78,38.31c.02-.07.05-.15.07-.22-.03-.01-.05-.02-.08-.03-.04.07-.07.13-.11.2.04.02.08.04.12.06Z"/>
        <path class="cls-1" d="M23.76,42.13c.23-.09.45-.18.68-.28-.34-.18-.56-.07-.68.28Z"/>
        <path class="cls-1" d="M23.64,53.63c-.06.07-.11.12-.15.16,0,0,0,.02,0,.03.07-.07.11-.13.15-.19Z"/>
        <path class="cls-1" d="M24.05,47c.02-.06.03-.12.05-.18-.04.05-.07.09-.1.13.02.02.04.03.06.05Z"/>
        <path class="cls-1" d="M20.87,41.42c.09.02.19.04.28.05.05,0,.11-.02.17-.03-.11-.24-.21-.47-.32-.69-.15.39-.2.59-.13.68Z"/>
        <path class="cls-1" d="M27.93,30.84c.05.02.11.04.16.06.03-.13.07-.25.1-.38-.04-.01-.08-.03-.12-.04-.05.12-.09.24-.14.35Z"/>
        <path class="cls-1" d="M28.53,29.85s0-.09.01-.14c-.1,0-.19-.02-.29-.02,0,0-.02.09,0,.1.09.03.19.05.29.07Z"/>
        <path class="cls-1" d="M25.19,42.57c.24.07.48.14.72.21.01-.06.03-.12.04-.19-.24-.05-.48-.1-.72-.16-.01.04-.02.09-.03.13Z"/>
        <path class="cls-1" d="M28.23,28.68c-.13-.02-.25-.03-.38-.05,0,.04,0,.08-.01.12.13.01.26.02.38.04,0-.04,0-.07,0-.11Z"/>
        <path class="cls-1" d="M24.91,30.37s-.08,0-.12,0c0,.12-.01.24-.02.36h.17c0-.12-.02-.24-.02-.36Z"/>
        <path class="cls-1" d="M21.57,40.46c.07.29.15.51.47.52-.22-.09-.07-.55-.47-.52Z"/>
        <path class="cls-1" d="M20.14,55.46c.06.09.12.18.18.27l.09-.06c-.06-.09-.11-.18-.17-.28-.03.02-.07.04-.1.07Z"/>
        <path class="cls-1" d="M25.92,30.48s-.09,0-.14-.01v.29s.1,0,.14,0c0-.09,0-.18,0-.27Z"/>
        <path class="cls-1" d="M22.34,44.24c.07.04.15.09.22.13,0,0,0,0,0,0,.03-.01.06-.03.1-.04-.02-.05-.04-.1-.07-.14-.08.01-.17.02-.25.05Z"/>
        <path class="cls-1" d="M22.1,44.47s-.04.08-.05.14c.05-.02.09-.04.14-.06-.03-.02-.06-.05-.08-.07Z"/>
        <path class="cls-1" d="M22.35,60.45s.07.11.09.11c.09-.03.17-.08.31-.15-.1-.08-.18-.17-.19-.16-.08.06-.15.13-.21.21Z"/>
        <path class="cls-1" d="M22.28,58.64c.2-.17.35-.3.57-.5-.2-.16-.33-.26-.47-.38-.17.29-.25.52-.1.88Z"/>
        <path class="cls-1" d="M21.31,61.32q.16-.33-.1-.67c.04.27.06.42.1.67Z"/>
        <path class="cls-1" d="M23.39,59.21s.07.13.12.14c.04,0,.1-.07.17-.12-.06-.08-.1-.14-.14-.2-.05.06-.13.11-.15.18Z"/>
        <path class="cls-1" d="M21.37,55.6c-.08.36-.14.57-.19.8.19-.06.36-.12.56-.18-.1-.17-.2-.34-.37-.62Z"/>
        <path class="cls-1" d="M28.29,59.9c-.04-.2-.08-.42-.13-.69-.3.47-.3.49.13.69Z"/>
        <path class="cls-1" d="M24.49,61.15c.09.08.19.15.28.23.03-.04.06-.08.09-.11l-.32-.2-.06.09Z"/>
        <path class="cls-1" d="M30,59.53c-.22-.12-.45-.24-.7-.38.01.24.03.46.04.66.28.1.52.19.77.28.08-.42.07-.47-.1-.57Z"/>
        <path class="cls-1" d="M21.1,45.95c.17-.12.5,0,.52-.34.01-.18-.29-.35-.63-.37-.05,0-.1.03-.16.06.05.22.09.43.14.66.06,0,.11.02.13,0Z"/>
        <path class="cls-1" d="M25.78,61.13c.12.05.25.1.37.15.03-.06.05-.11.08-.17-.14-.03-.28-.06-.42-.1-.01.04-.02.08-.03.11Z"/>
        <path class="cls-1" d="M21.32,32.47c-.12-.28-.24-.54-.36-.81-.04.02-.08.03-.12.05-.03.63.06.78.47.76Z"/>
        <path class="cls-1" d="M23.27,35.85s.11,0,.16-.01c.02-.04.03-.07.05-.11-.14-.04-.27-.08-.41-.12.05.14.12.2.2.24Z"/>
        <path class="cls-1" d="M23.14,48.8c.07-.16.14-.3.2-.45.12.07.24.14.39.23.21-.6.19-.96-.06-1.31-.03.26-.06.48-.08.65-.22.06-.4.11-.58.16.09.22-.27.51.13.72Z"/>
        <path class="cls-1" d="M23.66,28.95c-.16.1-.29.17-.48.29.25.06.44.1.74.17-.13-.23-.19-.34-.25-.46Z"/>
        <path class="cls-1" d="M23.74,30.52c.08.1.16.19.24.29.03-.02.05-.04.08-.06-.07-.1-.14-.2-.22-.3-.03.03-.07.05-.1.08Z"/>
        <path class="cls-1" d="M20.99,37.06c-.07-.41-.29-.69-.67-.87-.14.59.13.94.67.87Z"/>
        <path class="cls-1" d="M22.72,31.54c.03.17.06.33.11.61.19-.33.21-.5-.11-.61Z"/>
        <polygon class="cls-1" points="22.58 27.67 22.58 27.67 22.58 27.68 22.58 27.67"/>
        <path class="cls-1" d="M23.41,44.26c0,.17-.02.34-.03.58.2-.03.34-.05.48-.07q-.03-.5-.45-.51Z"/>
        <path class="cls-1" d="M21.49,35.24c.03.29.06.51.09.74q.23-.46-.09-.74Z"/>
      </g>
      <g>
        <path class="cls-1" d="M73.82,8.7s-.06.07-.08.12c.08-.02.14-.04.2-.05-.04-.02-.08-.05-.11-.07Z"/>
        <path class="cls-1" d="M71.59,12.69c-.02-.07-.03-.12-.04-.18l-2.06.94,4.17.6.56,3.8.51-.96c-.16-.04-.26-.17-.31-.41.16.05.3.1.44.15l1.18-2.24.97.14c.06-.05.14-.1.24-.15.07.12.03.16-.03.18l.41.06s0,0,0,0c0,0,0,0,0,0l1.93.28s-.34-.73-.98-1.7c-.07-.02-.15-.04-.23-.06.06-.02.11-.03.17-.04-.11-.16-.22-.32-.34-.49-.02.09-.04.18-.06.26-.05-.01-.11-.03-.16-.04l.1-.4c-.18-.24-.37-.49-.58-.74v-.02c-.11-.04-.23-.08-.38-.12.21-.11.34-.09.45,0l1.23-2.32-2.58,1.17c-.17-.14-.33-.28-.5-.42.05.13.09.26.09.38-.01.2-.16.4-.28.58-.03.05-.19,0-.3,0,.1-.4.19-.77.28-1.14-.4-.31-.8-.58-1.16-.82-.1.11-.21.22-.33.35-.17-.28-.33-.47-.39-.68-.01-.05-.02-.09-.03-.14-.47-.28-.78-.43-.78-.43l.53,3.6-1.32.6c-.16.15-.27.26-.4.38ZM74.25,9.46c-.45.51-.45.51-.72.15.21-.05.42-.09.72-.15ZM73.17,9.28c-.05-.02-.12-.02-.15-.05-.16-.21.09-.22.11-.35l.14.04c-.03.12-.06.24-.1.35ZM74.93,14.92c-.07-.16-.11-.24-.13-.32-.05-.23-.15-.39-.42-.39-.23,0-.24-.14-.18-.31.66.13.8.31.73,1.03ZM74.64,11.97c.2.12.29.17.4.24q-.22.18-.4-.24ZM77.3,12.3c.08.09.13.14.2.22-.26.21-.64.27-.71.65,0,.03-.18.03-.34-.05.27-.26.54-.52.85-.82ZM75.82,12.68c.06.14.11.27.17.41-.03.04-.06.07-.09.11-.17-.07-.34-.13-.62-.24.25-.13.37-.18.55-.28Z"/>
      </g>
    </g>
  </g>
</svg>